<svg width="36" height="36" fill="none" xmlns="http://www.w3.org/2000/svg"><path d="M23.143 11.143H9.428m13.715 6.854H14.57m8.573 6.86H9.428" stroke="#70231C" stroke-width="1.143" stroke-linecap="round" stroke-linejoin="round"/><path fill-rule="evenodd" clip-rule="evenodd" d="M28.287 12.857c-.857 0-1.714-.857-1.714-1.714s.857-1.714 1.714-1.714c.858 0 1.713.857 1.713 1.714s-.855 1.714-1.713 1.714zm0 6.857c-.857 0-1.714-.857-1.714-1.714s.857-1.714 1.714-1.714c.858 0 1.713.857 1.713 1.714s-.855 1.714-1.713 1.714zm0 6.857c-.857 0-1.714-.857-1.714-1.714s.857-1.714 1.714-1.714c.858 0 1.713.857 1.713 1.714s-.855 1.714-1.713 1.714z" fill="#70231C"/></svg>