<svg width="66" height="66" fill="none" xmlns="http://www.w3.org/2000/svg"><g clip-path="url(#clip0)"><path d="M12.863.42A11.843 11.843 0 00.994 12.287V53.55a11.843 11.843 0 0011.869 11.868h22.364V40.01h-6.72v-9.15h6.72v-7.816c0-6.14 3.97-11.779 13.116-11.779 3.702 0 6.44.356 6.44.356l-.215 8.543s-2.792-.026-5.84-.026c-3.297 0-3.826 1.52-3.826 4.042v6.68h9.928l-.432 9.15h-9.496v25.41h9.224a11.843 11.843 0 0011.868-11.868V12.288A11.843 11.843 0 0054.126.42H12.863z" fill="url(#paint0_linear)"/></g><defs><linearGradient id="paint0_linear" x1="33.494" y1=".419" x2="33.494" y2="65.42" gradientUnits="userSpaceOnUse"><stop stop-color="#FFE175"/><stop offset="1" stop-color="#FFC01B"/></linearGradient><clipPath id="clip0"><path fill="#fff" transform="translate(.994 .42)" d="M0 0h65v65H0z"/></clipPath></defs></svg>