<svg width="80" height="80" fill="none" xmlns="http://www.w3.org/2000/svg"><g clip-path="url(#clip0)"><path d="M40 80c22.091 0 40-17.909 40-40S62.091 0 40 0 0 17.909 0 40s17.909 40 40 40z" fill="url(#paint0_linear)"/><path d="M80.001 40c0-2.005-.15-3.976-.434-5.902L61.553 16.084 46.445 58.918l14.91 14.909C72.56 66.739 80 54.239 80 40z" fill="#FE8A01"/><path d="M38.557 35.266a3.616 3.616 0 100-7.232 3.616 3.616 0 000 7.232z" fill="#F2D99C"/><path d="M63.926 35.266a3.616 3.616 0 100-7.232 3.616 3.616 0 000 7.232z" fill="#DBC189"/><path d="M69.775 53.07l-11.76-1.505a2.892 2.892 0 01-2.525-2.869v-5.334h-8.495v5.334a2.892 2.892 0 01-2.525 2.869l-11.76 1.504a7.212 7.212 0 00-6.296 7.153v5.452c6.468 6.137 15.209 9.902 24.829 9.902 3.175 0 6.254-.412 9.187-1.182A40.18 40.18 0 0075.724 58.01a7.213 7.213 0 00-5.949-4.94z" fill="#E0C082"/><path d="M58.17 45.575l-1.995 1.075a10.364 10.364 0 01-9.827 0l-1.996-1.075a11.38 11.38 0 01-5.985-10.02V23.243h25.789v12.312a11.38 11.38 0 01-5.985 10.02z" fill="#FFECB3"/><path d="M51.154 23.243v24.644a10.357 10.357 0 005.022-1.237l1.996-1.075a11.38 11.38 0 005.985-10.02V23.243H51.154z" fill="#FFD863"/><path d="M75.724 58.01a7.212 7.212 0 00-5.949-4.941l-9.952-1.273a11.726 11.726 0 01-8.58 3.721 11.726 11.726 0 01-8.58-3.721l-9.952 1.273a7.212 7.212 0 00-6.297 7.153v5.452c4.192 3.976 9.337 10.321 15.058 14.296 14.988-.542 27.871-9.328 34.252-21.96z" fill="#fff"/><path d="M75.723 58.01a7.212 7.212 0 00-5.948-4.941l-9.953-1.273a11.726 11.726 0 01-8.58 3.721v22.879c10.699-3.128 19.54-10.603 24.481-20.386z" fill="#F2F2F2"/><path d="M50.63 55.5a11.725 11.725 0 01-7.968-3.704l-4.295.55 6.801 8.776 6.074-5.602c-.206 0-.41-.007-.612-.02z" fill="#E0E0E0"/><path d="M51.242 55.52l6.074 5.602 6.801-8.777-4.295-.55a11.726 11.726 0 01-7.968 3.706 10.1 10.1 0 01-.612.019z" fill="#E0E0E0"/><path d="M64.007 37.147h2.265V27.012c0-8.308-6.749-15.039-15.063-15.01-8.296.029-14.957 6.877-14.957 15.173v9.972h2.116v-7.004c9.82 1.272 17.594-5.753 17.594-5.753s3.408 6.602 8.045 7.773v4.984z" fill="#4D4D4D"/><path d="M51.21 12.002h-.056v15.585c2.99-1.553 4.809-3.197 4.809-3.197s3.408 6.602 8.045 7.773v4.984h2.265V27.012c0-8.308-6.749-15.039-15.063-15.01z" fill="#333"/><path d="M39.594 35.3h-28.96v23.76h28.96V35.3z" fill="#754C24"/><path d="M39.594 35.3H24.926v23.76h14.668V35.3z" fill="#603813"/><path d="M40.52 57.539l-9.789-1.252a2.407 2.407 0 01-2.102-2.388v-4.44h-7.07v4.44a2.409 2.409 0 01-2.103 2.388l-9.788 1.252a5.992 5.992 0 00-4.225 2.617c5.314 9.09 14.11 15.897 24.56 18.585a34.626 34.626 0 0015.757-6.454v-8.795c0-3.02-2.245-5.57-5.24-5.953z" fill="#F2D99C"/><path d="M40.52 57.539l-9.787-1.252a2.407 2.407 0 01-2.102-2.388v-4.44h-3.705v27.6a39.679 39.679 0 005.08 1.682 34.63 34.63 0 0015.756-6.454v-8.795c0-3.02-2.245-5.57-5.241-5.953z" fill="#D3BC88"/><path d="M31.78 50.145l-1.926 1.037a9.997 9.997 0 01-9.48 0l-1.925-1.037a10.978 10.978 0 01-5.773-9.666V28.602h24.877V40.48a10.98 10.98 0 01-5.773 9.666z" fill="#FFECB3"/><path d="M24.926 28.602v23.772a9.99 9.99 0 004.928-1.192l1.925-1.037a10.978 10.978 0 005.774-9.666V28.602H24.926z" fill="#FFD863"/><path d="M40.52 57.539l-8.283-1.06a9.76 9.76 0 01-7.141 3.097 9.76 9.76 0 01-7.142-3.097l-8.284 1.06a5.993 5.993 0 00-4.225 2.617c6.847 11.712 19.476 19.63 33.972 19.837 2.163-.036 4.282-.249 4.333-.626V63.492c2.012-3.02-.233-5.57-3.23-5.953z" fill="#D5362B"/><path d="M40.52 57.539l-8.283-1.06a9.76 9.76 0 01-7.142 3.097c-.057 0-.112-.003-.17-.004v17.486a39.863 39.863 0 0014.492 2.935c2.163-.036 6.901-.475 6.952-.852l.075-15.811c2.012-3.02-2.927-5.408-5.923-5.791z" fill="#70231C"/><path d="M25.063 17.759c-8.002.027-14.428 6.633-14.428 14.636v20.22l1.695-4.024a9.423 9.423 0 00.74-3.659v-8.095c12.955-1.64 17.722-7.597 17.722-7.597s1.755 4.173 6.367 7.612v8.08a9.42 9.42 0 00.74 3.66l1.695 4.023V32.238c0-8.014-6.51-14.507-14.53-14.48z" fill="#8C6239"/><path d="M39.594 32.238c0-8.014-6.51-14.507-14.53-14.48-.047 0-.092.002-.138.003v15.682c4.155-2.067 5.865-4.203 5.865-4.203s1.755 4.173 6.368 7.612v8.08c0 1.257.251 2.5.74 3.66l1.695 4.023V32.238z" fill="#754C24"/><path d="M32.347 56.453a2.658 2.658 0 100-5.316 2.658 2.658 0 000 5.316z" fill="#F2D99C"/><path d="M50.996 56.453a2.658 2.658 0 100-5.316 2.658 2.658 0 000 5.316z" fill="#EAD09D"/><path d="M40 80c7.254 0 14.056-1.93 19.922-5.306a5.3 5.3 0 00-4.627-5.154l-8.645-1.105a2.126 2.126 0 01-1.856-2.11v-3.92H38.55v3.92c0 1.07-.795 1.974-1.857 2.11L28.05 69.54a5.301 5.301 0 00-4.63 5.259v1.612A39.853 39.853 0 0040.002 80z" fill="#F2D99C"/><path d="M55.295 69.54l-8.645-1.105a2.126 2.126 0 01-1.856-2.11v-3.92h-3.22v17.563a39.78 39.78 0 0018.347-5.274 5.3 5.3 0 00-4.626-5.154z" fill="#DBC491"/><path d="M46.765 64.032l-1.468.79a7.618 7.618 0 01-7.223 0l-1.467-.79a8.366 8.366 0 01-4.4-7.366v-9.05h18.957v9.05a8.366 8.366 0 01-4.4 7.366z" fill="#FFECB3"/><path d="M41.574 47.615V65.73a7.612 7.612 0 003.724-.907l1.467-.79a8.366 8.366 0 004.4-7.366v-9.05h-9.59z" fill="#FFD863"/><path d="M39.999 80c7.253 0 14.055-1.93 19.92-5.306a5.3 5.3 0 00-4.626-5.154l-7.316-.935a8.62 8.62 0 01-6.307 2.735 8.62 8.62 0 01-6.307-2.735l-7.316.935a5.301 5.301 0 00-4.629 5.259v1.612A39.852 39.852 0 0039.998 80z" fill="#FFCF35"/><path d="M41.672 71.34v8.623a39.778 39.778 0 0018.25-5.269 5.3 5.3 0 00-4.627-5.154l-7.316-.935a8.62 8.62 0 01-6.307 2.735z" fill="#FFC000"/><path d="M51.056 57.836h1.665v-7.45c0-6.107-4.962-11.056-11.074-11.035-6.098.022-10.995 5.056-10.995 11.154v7.33h1.556v-2.728c7.22.935 12.934-5.543 12.934-5.543s2.505 5.097 5.914 5.958v2.314z" fill="#FF9451"/><path d="M41.647 39.352l-.073.002V52.56c2.217-1.466 3.567-2.996 3.567-2.996s2.505 5.096 5.914 5.957v2.314h1.665v-7.45c0-6.107-4.96-11.055-11.073-11.034z" fill="#F7674F"/><path d="M41.447 50.797c4.292 0 8.066 1.011 10.242 2.539h1.032v-4.049c0-6.107-4.962-11.055-11.074-11.034-6.098.021-10.995 5.056-10.995 11.154v3.929h.552c2.177-1.528 5.95-2.538 10.243-2.538z" fill="#D5362B"/><path d="M41.647 38.254l-.073.002v12.543c4.24.02 7.96 1.025 10.115 2.537h1.031v-4.048c0-6.107-4.96-11.056-11.073-11.034z" fill="#70231C"/><path d="M52.72 55.869c-6.093-6.094-15.974-6.094-22.068 0v-2.944c6.094-6.094 15.975-6.094 22.069 0v2.944z" fill="#FFB8B4"/><path d="M41.574 48.355V51.3a15.556 15.556 0 0111.146 4.569v-2.945a15.557 15.557 0 00-11.146-4.569z" fill="#E2594F"/></g><defs><linearGradient id="paint0_linear" x1="40" y1="0" x2="40" y2="80" gradientUnits="userSpaceOnUse"><stop stop-color="#FFE175"/><stop offset="1" stop-color="#FFC01B"/></linearGradient><clipPath id="clip0"><path fill="#fff" d="M0 0h80v80H0z"/></clipPath></defs></svg>