<svg width="80" height="80" fill="none" xmlns="http://www.w3.org/2000/svg"><path d="M40 80c22.091 0 40-17.909 40-40S62.091 0 40 0 0 17.909 0 40s17.909 40 40 40z" fill="url(#paint0_linear)"/><path d="M79.987 41.01l-10.23-10.229H10.242l5.42 5.42-5.302 14.527 29.267 29.267c.125.001.248.005.372.005 21.754 0 39.451-17.365 39.988-38.99z" fill="#FE8A01"/><path d="M16.302 31.406h-3.125v13.23h3.125v-13.23z" fill="#666"/><path d="M58.404 49.58c-10.831 8.402-25.977 8.402-36.808 0V28.74h36.808v20.84z" fill="#BB3026"/><path d="M40 28.74v27.14c6.427.022 12.96-2.078 18.404-6.3V28.74H40z" fill="#690B04"/><path d="M40 43.832l-29.758-13.05L40 17.73l29.758 13.051L40 43.832z" fill="#D4362B"/><path d="M40 43.832l29.757-13.05L40 17.73v26.102z" fill="#BB3026"/><path d="M19.014 50.728H10.36l1.671-8.697h5.312l1.671 8.697z" fill="url(#paint1_linear)"/><defs><linearGradient id="paint0_linear" x1="40" y1="0" x2="40" y2="80" gradientUnits="userSpaceOnUse"><stop stop-color="#FFE175"/><stop offset="1" stop-color="#FFC01B"/></linearGradient><linearGradient id="paint1_linear" x1="14.687" y1="42.031" x2="14.687" y2="50.728" gradientUnits="userSpaceOnUse"><stop stop-color="#D5352A"/><stop offset="1" stop-color="#BA2F25"/></linearGradient></defs></svg>