<svg width="32" height="32" fill="none" xmlns="http://www.w3.org/2000/svg"><g clip-path="url(#clip0)"><path d="M20.91 0h-9.823C2.123 0-.002 2.125-.002 11.09v9.822c0 8.964 2.125 11.09 11.089 11.09h9.823c8.964 0 11.089-2.126 11.089-11.09V11.09C31.999 2.125 29.853 0 20.91 0zm4.922 22.828h-2.323c-.88 0-1.151-.698-2.734-2.302-1.375-1.333-1.984-1.51-2.323-1.51-.479 0-.615.135-.615.792v2.1c0 .562-.177.9-1.667.9-2.464 0-5.198-1.49-7.115-4.266-2.891-4.068-3.682-7.115-3.682-7.745 0-.339.135-.656.786-.656h2.328c.59 0 .813.271 1.042.901 1.151 3.323 3.068 6.234 3.859 6.234.292 0 .427-.135.427-.88v-3.432c-.089-1.583-.922-1.719-.922-2.28 0-.272.224-.543.583-.543h3.661c.495 0 .677.271.677.854v4.63c0 .5.224.677.359.677.292 0 .542-.177 1.083-.719 1.672-1.875 2.87-4.766 2.87-4.766.156-.339.427-.656 1.016-.656h2.328c.698 0 .854.36.698.86-.292 1.353-3.141 5.374-3.141 5.374-.245.406-.339.583 0 1.036.25.34 1.063 1.042 1.604 1.672.995 1.13 1.76 2.078 1.964 2.734.229.651-.109.99-.766.99l.003.001z" fill="#fff"/></g><defs><clipPath id="clip0"><path fill="#fff" d="M0 0h32v32H0z"/></clipPath></defs></svg>