<svg width="66" height="66" fill="none" xmlns="http://www.w3.org/2000/svg"><g clip-path="url(#clip0)"><path d="M33.495 22.086a10.834 10.834 0 100 21.667 10.834 10.834 0 000-21.667z" fill="url(#paint0_linear)"/><path fill-rule="evenodd" clip-rule="evenodd" d="M20.494.42a19.5 19.5 0 00-19.5 19.5v26a19.5 19.5 0 0019.5 19.5h26a19.5 19.5 0 0019.5-19.5v-26a19.5 19.5 0 00-19.5-19.5h-26zm-2.166 32.5a15.167 15.167 0 1130.333 0 15.167 15.167 0 01-30.334 0zM48.66 17.752h4.333v-4.334H48.66v4.334z" fill="url(#paint1_linear)"/></g><defs><linearGradient id="paint0_linear" x1="33.495" y1="22.086" x2="33.495" y2="43.753" gradientUnits="userSpaceOnUse"><stop stop-color="#FFE175"/><stop offset="1" stop-color="#FFC01B"/></linearGradient><linearGradient id="paint1_linear" x1="33.494" y1=".419" x2="33.494" y2="65.419" gradientUnits="userSpaceOnUse"><stop stop-color="#FFE175"/><stop offset="1" stop-color="#FFC01B"/></linearGradient><clipPath id="clip0"><path fill="#fff" transform="translate(.994 .42)" d="M0 0h65v65H0z"/></clipPath></defs></svg>