<svg width="80" height="80" fill="none" xmlns="http://www.w3.org/2000/svg"><path d="M40 80c22.091 0 40-17.909 40-40S62.091 0 40 0 0 17.909 0 40s17.909 40 40 40z" fill="url(#paint0_linear)"/><path d="M80 40c0-1.11-.046-2.21-.134-3.298L54.048 10.885 25.951 27.362l12.76 12.76-2.897 2.073-8.117-8.116-7.971 7.813 6.897 6.88-11.95 8.55 22.585 22.585c.906.062 1.82.093 2.742.093 22.091 0 40-17.909 40-40z" fill="#FE8A01"/><path d="M29.176 39.322a5.58 5.58 0 10-10.861-2.567 5.58 5.58 0 0010.861 2.567z" fill="#FFC9BD"/><path d="M32.826 57.322H14.673v-4.164a9.076 9.076 0 0118.153 0v4.164z" fill="#D5362B"/><path d="M61.685 39.33a5.58 5.58 0 10-10.861-2.567 5.58 5.58 0 0010.861 2.568z" fill="#FFC9BD"/><path d="M65.327 57.322H47.174v-4.164a9.076 9.076 0 1118.153 0v4.164z" fill="#D5362B"/><path d="M47.196 42.545a7.301 7.301 0 10-14.414-2.337 7.301 7.301 0 0014.414 2.337z" fill="#F9C0B3"/><path d="M47.302 41.38A7.302 7.302 0 0140 48.682V34.08a7.302 7.302 0 017.302 7.301z" fill="#FFC9BD"/><path d="M51.874 66.628H28.126V61.18c0-6.558 5.316-11.874 11.874-11.874 6.558 0 11.874 5.316 11.874 11.874v5.448z" fill="#D5362B"/><path d="M51.874 66.628H40V49.306c6.558 0 11.874 5.316 11.874 11.874v5.448z" fill="#BB3026"/><path d="M54.048 10.885H25.951v16.477h10.602L40 32.832l3.447-5.47h10.601V10.885z" fill="#D5362B"/><path d="M54.049 10.885H40v21.947l3.447-5.47H54.05V10.885z" fill="#BB3026"/><defs><linearGradient id="paint0_linear" x1="40" y1="0" x2="40" y2="80" gradientUnits="userSpaceOnUse"><stop stop-color="#FFE175"/><stop offset="1" stop-color="#FFC01B"/></linearGradient></defs></svg>