<svg width="80" height="80" fill="none" xmlns="http://www.w3.org/2000/svg"><path d="M40 80c22.091 0 40-17.909 40-40S62.091 0 40 0 0 17.909 0 40s17.909 40 40 40z" fill="url(#paint0_linear)"/><path d="M80 40v-.054L58.646 18.594 15.645 58.552l21.334 21.335c.998.074 2.005.113 3.021.113 22.091 0 40-17.909 40-40z" fill="#FE8A01"/><path d="M15.645 24.302v34.25h17.59c.943 1.684 3.54 2.854 6.765 2.854 3.225 0 5.823-1.17 6.764-2.854h17.592v-34.25H15.645z" fill="#D5362B"/><path d="M64.356 24.302v34.25H46.764c-.942 1.684-3.539 2.854-6.764 2.854V24.302h24.356z" fill="#70231C"/><path d="M42.255 18.594l-2.254 2.254-2.255-2.254H21.353v34.25h15.194l3.454 3.453 3.453-3.453h15.194v-34.25H42.255z" fill="#E7E7E7"/><path d="M58.647 18.594v34.25H43.454L40 56.297V20.848l2.255-2.254h16.392z" fill="#D3D3D8"/><defs><linearGradient id="paint0_linear" x1="40" y1="0" x2="40" y2="80" gradientUnits="userSpaceOnUse"><stop stop-color="#FFE175"/><stop offset="1" stop-color="#FFC01B"/></linearGradient></defs></svg>