<svg width="24" height="24" fill="none" xmlns="http://www.w3.org/2000/svg"><path d="M21.663 7.931a10.49 10.49 0 00-2.252-3.358 10.384 10.384 0 00-3.351-2.257A10.404 10.404 0 0012 1.5h-.047a10.43 10.43 0 00-7.401 3.103A10.43 10.43 0 002.325 7.95c-.538 1.3-.81 2.693-.801 4.1a10.562 10.562 0 001.122 4.684v3.563c0 .595.483 1.078 1.076 1.078H7.28a10.494 10.494 0 004.676 1.125h.049c1.401 0 2.758-.272 4.038-.804a10.387 10.387 0 003.34-2.231 10.426 10.426 0 002.257-3.328c.55-1.294.832-2.67.84-4.09a10.545 10.545 0 00-.817-4.116zm-14.34 5.194a1.125 1.125 0 010-2.25 1.125 1.125 0 010 2.25zm4.677 0a1.125 1.125 0 010-2.25 1.125 1.125 0 010 2.25zm4.678 0a1.125 1.125 0 010-2.25 1.125 1.125 0 010 2.25z" fill="#A8A8A8"/></svg>