<svg width="80" height="80" fill="none" xmlns="http://www.w3.org/2000/svg"><g clip-path="url(#clip0)"><path d="M40 80c22.091 0 40-17.909 40-40S62.091 0 40 0 0 17.909 0 40s17.909 40 40 40z" fill="url(#paint0_linear)"/><path d="M46.971 79.393C65.74 76.094 80 59.713 80 40c0-.368-.006-.734-.016-1.1L58.663 17.579l-43.634 14.25L29.32 46.12l-13.918 1.704 31.57 31.57z" fill="#FE8A01"/><path d="M20.397 32.138h36.548v-12.84H20.397a6.42 6.42 0 000 12.84z" fill="#FFECB3"/><path d="M56.944 19.297H39.992v12.84h16.952v-12.84z" fill="#FFD863"/><path d="M58.662 33.856H20.395c-4.488 0-8.14-3.65-8.14-8.139 0-4.487 3.652-8.138 8.14-8.138h38.267v3.437H20.395a4.707 4.707 0 00-4.702 4.702 4.706 4.706 0 004.702 4.7h38.267v3.438z" fill="#DC3707"/><path d="M58.663 30.419h-18.67v3.437h18.67V30.42zm0-12.841h-18.67v3.438h18.67v-3.438z" fill="#C83A11"/><path d="M20.397 47.824h36.548v-12.84H20.397a6.42 6.42 0 100 12.84z" fill="#FFECB3"/><path d="M56.944 34.984H39.992v12.841h16.952v-12.84z" fill="#FFD863"/><path d="M58.662 49.542H20.395c-4.488 0-8.14-3.65-8.14-8.138 0-4.488 3.652-8.139 8.14-8.139h38.267v3.438H20.395a4.707 4.707 0 00-4.702 4.7 4.706 4.706 0 004.702 4.702h38.267v3.438z" fill="#70231C"/><path d="M58.66 46.105H39.99v3.437h18.67v-3.437zm0-12.839H39.99v3.437h18.67v-3.437z" fill="#70231C"/><path d="M41.005 55.41l12.427 12.428 5.303-5.304-12.427-12.427-5.303 5.303z" fill="#DC3707"/><path d="M43.376 53.04l12.427 12.426 2.933-2.933L46.31 50.106l-2.933 2.933z" fill="#C83A11"/><path d="M35.029 56.61c6.434 0 11.65-5.216 11.65-11.65 0-6.435-5.216-11.65-11.65-11.65s-11.65 5.215-11.65 11.65c0 6.434 5.216 11.65 11.65 11.65z" fill="#fff"/><path d="M46.679 44.959c0-6.435-5.216-11.65-11.65-11.65-3.15 0-6.006 1.251-8.103 3.282l16.47 16.47a11.609 11.609 0 003.283-8.102z" fill="#E0E0E0"/><path d="M35.028 59.266c-7.89 0-14.307-6.418-14.307-14.307s6.418-14.307 14.307-14.307 14.306 6.418 14.306 14.307-6.418 14.307-14.306 14.307zm0-23.302c-4.96 0-8.995 4.035-8.995 8.995 0 4.96 4.035 8.994 8.995 8.994 4.96 0 8.994-4.035 8.994-8.994 0-4.96-4.035-8.995-8.994-8.995z" fill="#FFE89D"/><path d="M35.028 35.964c4.96 0 8.995 4.035 8.995 8.995a8.96 8.96 0 01-2.508 6.221l3.756 3.756a14.259 14.259 0 004.064-9.977c0-7.89-6.418-14.307-14.307-14.307-3.877 0-7.398 1.55-9.977 4.064l3.756 3.756a8.96 8.96 0 016.221-2.508z" fill="#FFC36B"/></g><defs><linearGradient id="paint0_linear" x1="40" y1="0" x2="40" y2="80" gradientUnits="userSpaceOnUse"><stop stop-color="#FFE175"/><stop offset="1" stop-color="#FFC01B"/></linearGradient><clipPath id="clip0"><path fill="#fff" d="M0 0h80v80H0z"/></clipPath></defs></svg>