<svg width="30" height="30" fill="none" xmlns="http://www.w3.org/2000/svg"><g clip-path="url(#clip0)"><path d="M29.467 15.155c0-7.79-6.404-14.106-14.308-14.106-.833 0-1.65.071-2.447.207A8.34 8.34 0 008.298 0C3.715 0 0 3.662 0 8.183a8.08 8.08 0 001.14 4.139c-.19.914-.29 1.864-.29 2.833 0 7.794 6.407 14.11 14.309 14.11.896 0 1.77-.082 2.62-.237 1.17.62 2.504.972 3.924.972C26.285 30 30 26.337 30 21.819c0-1.306-.31-2.54-.862-3.634.216-.978.33-1.99.33-3.03zM22.5 21.9c-.662.925-1.639 1.656-2.909 2.174-1.255.514-2.757.777-4.47.777-2.055 0-3.778-.357-5.124-1.061a6.635 6.635 0 01-2.355-2.062c-.608-.863-.915-1.72-.915-2.55 0-.514.2-.963.595-1.33.392-.365.895-.548 1.495-.548.49 0 .916.145 1.26.432.33.276.612.685.839 1.208.254.575.529 1.058.82 1.435.282.369.686.676 1.201.918.518.24 1.22.365 2.078.365 1.183 0 2.153-.25 2.883-.74.713-.479 1.059-1.056 1.059-1.763 0-.554-.182-.992-.552-1.336-.392-.359-.905-.637-1.528-.832a30.952 30.952 0 00-2.625-.641c-1.486-.313-2.748-.683-3.75-1.106-1.026-.43-1.853-1.026-2.458-1.772-.614-.76-.927-1.711-.927-2.83 0-1.064.327-2.026.972-2.852.64-.823 1.574-1.466 2.778-1.903 1.188-.433 2.598-.652 4.199-.652 1.277 0 2.4.146 3.34.434.942.29 1.736.679 2.36 1.16.63.487 1.1 1.004 1.392 1.543.296.544.448 1.085.448 1.608 0 .504-.197.963-.587 1.361-.39.403-.887.607-1.47.607-.529 0-.944-.129-1.23-.38-.269-.234-.547-.6-.856-1.121-.357-.667-.79-1.194-1.284-1.566-.482-.362-1.285-.543-2.39-.543-1.023 0-1.86.202-2.478.604-.597.384-.888.827-.888 1.352 0 .32.094.59.288.82.201.246.488.458.852.639.376.186.764.335 1.152.44a49.8 49.8 0 001.98.48c1.159.243 2.222.52 3.161.817.955.299 1.777.667 2.45 1.1a4.843 4.843 0 011.612 1.678c.387.68.583 1.514.583 2.487a5.301 5.301 0 01-1.002 3.149z" fill="#24AEF0"/><path d="M5.595 25.638c.088.078.172.158.262.233a35.907 35.907 0 01-.95-1.181c.228.327.458.644.688.948zm6.12-.13c1.347.704 3.07 1.06 5.124 1.06 1.713 0 3.216-.262 4.47-.777 1.27-.517 2.248-1.248 2.91-2.173a5.306 5.306 0 001-3.147c0-.973-.195-1.807-.581-2.487a4.856 4.856 0 00-1.613-1.679c-.04-.026-.088-.05-.13-.076.007.012.016.023.023.036.387.68.583 1.514.583 2.487 0 1.161-.339 2.22-1.002 3.147-.662.925-1.638 1.656-2.909 2.174-1.254.514-2.757.777-4.47.777-2.055 0-3.777-.357-5.123-1.061a7.149 7.149 0 01-.682-.412l.046.068a6.637 6.637 0 002.354 2.063z" fill="#22D5FF"/><path d="M12.936 21.292c.518.24 1.22.366 2.078.366 1.183 0 2.153-.251 2.883-.741.713-.478 1.059-1.056 1.059-1.762 0-.555-.182-.993-.551-1.337a3.382 3.382 0 00-.516-.376 14.589 14.589 0 01-6.141 2.947c.282.361.68.666 1.188.903z" fill="#0B97CE"/><path d="M29.137 18.185c.217-.978.33-1.99.33-3.03 0-4.91-2.547-9.234-6.408-11.76.16.867.248 1.76.248 2.675 0 3.044-.93 5.871-2.519 8.213.181.098.355.198.518.304a4.843 4.843 0 011.611 1.678c.387.68.583 1.514.583 2.487 0 1.161-.338 2.22-1.002 3.147-.661.925-1.638 1.656-2.908 2.174-1.255.514-2.757.777-4.47.777-2.055 0-3.778-.357-5.124-1.061a6.635 6.635 0 01-2.355-2.062 5.596 5.596 0 01-.61-1.101 14.55 14.55 0 01-5.713-1.881c1.61 6.054 7.196 10.52 13.84 10.52.897 0 1.771-.082 2.622-.237a8.35 8.35 0 003.922.972C26.285 30 30 26.337 30 21.819c0-1.305-.31-2.539-.862-3.634z" fill="#0798D8"/><path d="M29.243 17.645a21.394 21.394 0 01-11.2 11.513 8.342 8.342 0 003.66.842C26.285 30 30 26.337 30 21.819c0-1.306-.31-2.54-.862-3.634.04-.178.071-.36.105-.54z" fill="#0D83CC"/><path d="M16.905 1.333a22.11 22.11 0 013.777.807 14.432 14.432 0 00-5.523-1.091c-.627 0-1.246.04-1.854.118a22.304 22.304 0 013.6.166zm9.015 4.533c.008.037.021.074.027.112.076.063.158.118.234.182-.084-.1-.174-.196-.261-.294zM9.159 1.172c.66 0 1.3.08 1.917.224a15.798 15.798 0 011.553-.188A8.332 8.332 0 008.299 0C3.714 0 0 3.662 0 8.183a8.08 8.08 0 001.14 4.139 14.025 14.025 0 00-.272 3.512c.208-1.026.544-1.926.973-2.628a8.061 8.061 0 01-.982-3.852c0-4.52 3.716-8.182 8.3-8.182z" fill="#22D5FF"/></g><defs><clipPath id="clip0"><path fill="#fff" d="M0 0h30v30H0z"/></clipPath></defs></svg>