<svg width="80" height="80" fill="none" xmlns="http://www.w3.org/2000/svg"><g clip-path="url(#clip0)"><path d="M78.754 30.058C74.334 12.777 58.66 0 40 0 17.909 0 0 17.909 0 40c0 18.66 12.777 34.334 30.058 38.754l48.696-48.696z" fill="url(#paint0_linear)"/><path d="M78.754 30.058L60.87 12.174 6.957 44.348l17.019 17.018-4.845 6.46 10.928 10.928A40.06 40.06 0 0040 80c22.09 0 40-17.909 40-40a40.07 40.07 0 00-1.247-9.942z" fill="#FE8A01"/><path d="M40.173 12.174L33.217 40l6.956 27.826h10.435l3.478-6.956 6.957-3.479V12.174h-20.87z" fill="#D8F4F2"/><path d="M40.172 12.174h-20.87v55.652h20.87V12.174z" fill="#fff"/><path d="M50.435 67.826V57.391H60.87L50.436 67.826z" fill="#7DDCD4"/><path d="M59.13 38.26l3.48 6.088 5.216-2.174L69.566 40 59.13 38.26z" fill="#F97D85"/><path d="M62.61 35.652L59.13 40h10.436l-1.74-2.174-5.217-2.174z" fill="#FCBEC2"/><path d="M67.826 42.174L73.044 40l-5.218-2.174v4.348z" fill="#70231C"/><path d="M10.434 35.652L8.695 40l27.826 3.478L62.608 40v-4.348H10.435z" fill="#FBD867"/><path d="M8.695 40l1.74 4.348h52.173V40H8.695z" fill="#F9BE02"/><path d="M6.957 35.652V40l1.74 1.739L10.434 40v-4.348H6.957z" fill="#D5362B"/><path d="M10.435 40H6.957v4.348h3.478V40z" fill="#70231C"/></g><defs><linearGradient id="paint0_linear" x1="39.377" y1="0" x2="39.377" y2="78.754" gradientUnits="userSpaceOnUse"><stop stop-color="#FFE175"/><stop offset="1" stop-color="#FFC01B"/></linearGradient><clipPath id="clip0"><path fill="#fff" d="M0 0h80v80H0z"/></clipPath></defs></svg>