<svg width="80" height="80" fill="none" xmlns="http://www.w3.org/2000/svg"><path d="M40 80c22.091 0 40-17.909 40-40S62.091 0 40 0 0 17.909 0 40s17.909 40 40 40z" fill="url(#paint0_linear)"/><path d="M36.32 59.035l18.233 18.234c13.534-5.289 23.48-17.736 25.184-32.687L47.462 12.306 36.319 59.035z" fill="#FE8A01"/><path d="M46.666 45.66H33.333v16.296h13.333V45.659z" fill="#FCD088"/><path d="M46.667 45.66H39.91v16.296h6.756V45.659z" fill="#DDAB62"/><path d="M55.9 57.136l-7.065-1.413-1.25-1.823a.867.867 0 00-1.055-.307L40 61.015l-6.492-7.42a.867.867 0 00-1.055.297l-1.288 1.83-7.066 1.414a7.697 7.697 0 00-6.187 7.547v8.668A39.81 39.81 0 0040 80a39.81 39.81 0 0022.087-6.65v-8.667a7.696 7.696 0 00-6.187-7.547z" fill="#D5362B"/><path d="M55.9 57.136l-7.065-1.413-1.249-1.823a.867.867 0 00-1.056-.307L40 61.015l-.09-.103v19.086L40 80a39.81 39.81 0 0022.087-6.65v-8.667a7.696 7.696 0 00-6.187-7.547z" fill="#BB3026"/><path d="M54.302 32.1a18.14 18.14 0 00.109-1.955c0-8.433-6.452-15.27-14.41-15.27-7.96 0-14.412 6.837-14.412 15.27 0 .638.038 1.292.11 1.955-1.398.363-2.063 2.514-1.486 4.815.58 2.309 2.19 3.894 3.597 3.54.128-.031.248-.083.363-.144 2.604 5.227 6.93 9.468 11.827 9.468s9.223-4.24 11.827-9.468c.116.061.235.113.364.145 1.406.353 3.017-1.232 3.596-3.54.578-2.302-.087-4.453-1.485-4.816z" fill="#FFEDB5"/><path d="M54.302 32.1a18.4 18.4 0 00.109-1.955c0-8.433-6.452-15.27-14.411-15.27l-.09.003v34.898l.09.003c4.897 0 9.223-4.24 11.827-9.468.116.06.235.113.363.145 1.407.353 3.017-1.232 3.597-3.541.578-2.301-.087-4.452-1.485-4.815z" fill="#E8CF89"/><path d="M40 65.234a.673.673 0 100-1.347.673.673 0 000 1.347zm0 2.782a.673.673 0 100-1.347.673.673 0 000 1.347zm0-6.984l-6.291-7.976a.67.67 0 00-1.02 0l-2.431 2.859 5.245 8.392a1.14 1.14 0 001.91.037L40 61.033z" fill="#fff"/><path d="M40 61.032l6.29-7.976a.67.67 0 011.02 0l2.432 2.859-5.245 8.392a1.14 1.14 0 01-1.911.037L40 61.033z" fill="#E0E0E0"/><path d="M46.2 31.315a4.11 4.11 0 00-3.975 3.1h-4.449a4.11 4.11 0 00-3.976-3.1 4.112 4.112 0 00-3.78 2.502l-3.328-3.329a.673.673 0 10-.953.952l3.956 3.957-.001.024a4.11 4.11 0 004.106 4.106 4.109 4.109 0 004.088-3.765h4.224a4.11 4.11 0 004.089 3.765 4.11 4.11 0 004.106-4.106 4.11 4.11 0 00-4.106-4.106zM33.8 38.18a2.762 2.762 0 01-2.76-2.76 2.762 2.762 0 012.76-2.758 2.762 2.762 0 012.759 2.759 2.762 2.762 0 01-2.76 2.759zm12.4 0a2.762 2.762 0 01-2.758-2.76 2.762 2.762 0 012.759-2.758 2.762 2.762 0 012.759 2.759 2.762 2.762 0 01-2.76 2.759z" fill="#444"/><path d="M46.2 31.315a4.11 4.11 0 00-3.976 3.1H39.91v1.347h2.202a4.11 4.11 0 004.088 3.765 4.11 4.11 0 004.106-4.106 4.11 4.11 0 00-4.106-4.106zm0 6.865a2.762 2.762 0 01-2.759-2.76 2.762 2.762 0 012.76-2.758 2.762 2.762 0 012.758 2.759A2.762 2.762 0 0146.2 38.18z" fill="#333"/><path d="M49.717 35.707a.672.672 0 01-.477-1.15l4.07-4.069a.673.673 0 11.951.953l-4.069 4.069a.672.672 0 01-.475.197z" fill="#444"/><path d="M54.815 22.581c-1.953-3.187-4.546-5.977-7.758-7.642.37-.523.575-1.095.575-1.696 0-2.48-3.477-4.49-7.767-4.49-4.289 0-7.766 2.01-7.766 4.49 0 .669.255 1.302.708 1.872-.08.036-.157.067-.237.104-10.437 4.848-9.046 20.27-8.417 18.653.628-1.616 1.546-1.772 1.546-1.772 5.45-2.513 8.824-7.858 8.824-7.858S53.2 27.79 50.505 48.44c0 0 11.79-13.65 4.31-25.859z" fill="#494948"/><path d="M54.815 22.581c-1.953-3.187-4.546-5.977-7.758-7.642.37-.523.575-1.095.575-1.696 0-2.47-3.453-4.474-7.722-4.488V26.25c5.285 2.757 12.32 8.967 10.595 22.189 0 0 11.79-13.65 4.31-25.859z" fill="#333"/><defs><linearGradient id="paint0_linear" x1="40" y1="0" x2="40" y2="80" gradientUnits="userSpaceOnUse"><stop stop-color="#FFE175"/><stop offset="1" stop-color="#FFC01B"/></linearGradient></defs></svg>