<svg width="80" height="80" fill="none" xmlns="http://www.w3.org/2000/svg"><path d="M40 80c22.091 0 40-17.909 40-40S62.091 0 40 0 0 17.909 0 40s17.909 40 40 40z" fill="url(#paint0_linear)"/><path d="M55.866 24.881l7.833 7.833v5.164l-20.28-20.28-6.66 6.119 2.488 2.44-2.488 5.104-12.507-12.508-6.055 5.948 2.69 2.688L9.56 50.015l7.769 7.77-3.513 6.18 14.213 14.213A39.982 39.982 0 0039.998 80c22.092 0 40-17.909 40-40 0-1.043-.04-2.077-.118-3.1L61.736 18.752l-5.87 6.128z" fill="#FE8A01"/><path d="M61.735 47.212h4.449v16.753h-4.449V47.212z" fill="#CDD2E1"/><path d="M58.742 44.408h11.699v5.607H58.742v-5.607z" fill="#E9EDF5"/><path d="M48.77 39.738H31.23l.818-11.066c.238-2.16 1.984-3.791 4.061-3.791h7.782c2.077 0 3.823 1.63 4.061 3.79l.818 11.067z" fill="#D4362B"/><path d="M47.952 28.672c-.237-2.16-1.984-3.79-4.061-3.79h-3.947v14.857h8.826l-.818-11.067z" fill="#690B04"/><path d="M44.457 21.284a4.524 4.524 0 10-8.932-1.448 4.524 4.524 0 008.932 1.448z" fill="#FFC9BD"/><path d="M40 16.035l-.056.001v9.047l.056.002a4.525 4.525 0 000-9.05z" fill="#FFBEAA"/><path d="M54.851 64.824a3.438 3.438 0 01-3.435-3.646l.98-16.148a3.438 3.438 0 013.177-3.22l5.339-.396-.616-1.287a3.438 3.438 0 116.202-2.966l2.787 5.827a3.438 3.438 0 01-2.847 4.911l-7.362.545-.797 13.15a3.438 3.438 0 01-3.428 3.23z" fill="#BB3026"/><path d="M60.016 25.826a4.245 4.245 0 10-2.478-8.12 4.245 4.245 0 002.478 8.12z" fill="#FFC9BD"/><path d="M57.814 30.926a5.136 5.136 0 1110.23-.922l1.561 13.663-10.552-2.172-1.239-10.569z" fill="#D4362B"/><path d="M58.742 37.559h-7.238a2.5 2.5 0 010-5h6.225l4.742-4.6a2.5 2.5 0 113.481 3.588l-5.469 5.306a2.5 2.5 0 01-1.74.706z" fill="#FFC9BD"/><path d="M30.155 38.522h19.69v25.443h-19.69V38.522z" fill="#555A66"/><path d="M39.944 38.522h9.9v25.443h-9.9V38.522z" fill="#333940"/><path d="M19.967 36.531h40.066v6.415H19.967V36.53z" fill="#fff"/><path d="M18.265 63.965h-4.449V47.212h4.449v16.753z" fill="#E9EDF5"/><path d="M21.258 50.015H9.56v-5.607h11.698v5.607z" fill="#fff"/><path d="M25.15 64.824a3.438 3.438 0 01-3.429-3.23l-.797-13.15-7.362-.545a3.438 3.438 0 01-2.847-4.911l2.787-5.827a3.438 3.438 0 016.203 2.966l-.616 1.287 5.34.396a3.438 3.438 0 013.176 3.22l.98 16.148a3.438 3.438 0 01-3.436 3.646z" fill="#BB3026"/><path d="M25.332 22.99a4.245 4.245 0 10-8.12-2.478 4.245 4.245 0 008.12 2.478z" fill="#FFBEAA"/><path d="M22.186 30.926a5.136 5.136 0 10-10.23-.922l-1.561 13.663 10.552-2.172 1.239-10.569z" fill="#D4362B"/><path d="M28.496 37.559h-7.238a2.5 2.5 0 01-1.741-.706l-5.47-5.306a2.5 2.5 0 113.482-3.588l4.742 4.6h6.225a2.5 2.5 0 110 5z" fill="#FFBEAA"/><path d="M60.033 42.946H19.967V36.53h40.066v6.415z" fill="#fff"/><path d="M39.944 36.531h20.089v6.415H39.944V36.53z" fill="#E9EDF5"/><defs><linearGradient id="paint0_linear" x1="40" y1="0" x2="40" y2="80" gradientUnits="userSpaceOnUse"><stop stop-color="#FFE175"/><stop offset="1" stop-color="#FFC01B"/></linearGradient></defs></svg>