<svg width="66" height="66" fill="none" xmlns="http://www.w3.org/2000/svg"><g clip-path="url(#clip0)"><path d="M43.469.42H23.516C5.308.42.99 4.735.99 22.943v19.953c0 18.208 4.317 22.524 22.525 22.524h19.953c18.208 0 22.524-4.316 22.524-22.524V22.944C65.993 4.736 61.634.419 43.47.419zm9.998 46.369h-4.72c-1.787 0-2.337-1.418-5.553-4.676-2.793-2.708-4.03-3.067-4.718-3.067-.973 0-1.25.274-1.25 1.608v4.264c0 1.144-.359 1.83-3.385 1.83-5.005 0-10.559-3.026-14.453-8.665C13.516 29.82 11.91 23.63 11.91 22.35c0-.689.274-1.333 1.597-1.333h4.729c1.196 0 1.65.55 2.116 1.83 2.338 6.75 6.232 12.663 7.839 12.663.593 0 .867-.274.867-1.787v-6.971c-.18-3.216-1.873-3.492-1.873-4.634 0-.55.455-1.1 1.184-1.1h7.437c1.005 0 1.375.55 1.375 1.734v9.405c0 1.015.455 1.375.73 1.375.592 0 1.1-.36 2.199-1.46 3.396-3.81 5.83-9.681 5.83-9.681.317-.69.867-1.333 2.063-1.333h4.73c1.417 0 1.734.73 1.417 1.745-.593 2.75-6.38 10.918-6.38 10.918-.498.825-.689 1.184 0 2.104.508.689 2.16 2.117 3.258 3.396 2.021 2.296 3.575 4.221 3.99 5.554.464 1.322-.222 2.01-1.557 2.01l.007.003z" fill="url(#paint0_linear)"/></g><defs><linearGradient id="paint0_linear" x1="33.492" y1=".419" x2="33.492" y2="65.421" gradientUnits="userSpaceOnUse"><stop stop-color="#FFE175"/><stop offset="1" stop-color="#FFC01B"/></linearGradient><clipPath id="clip0"><path fill="#fff" transform="translate(.994 .42)" d="M0 0h65v65H0z"/></clipPath></defs></svg>