<svg width="30" height="30" fill="none" xmlns="http://www.w3.org/2000/svg"><g clip-path="url(#clip0)"><path d="M15.005 0h-.01C6.728 0 0 6.727 0 15c0 3.28 1.059 6.322 2.856 8.791L.988 29.365l5.765-1.843A14.88 14.88 0 0015.005 30C23.275 30 30 23.271 30 15c0-8.272-6.726-15-14.995-15zm8.727 21.181c-.36 1.023-1.798 1.87-2.944 2.117-.785.167-1.807.3-5.254-1.129-4.408-1.825-7.247-6.305-7.467-6.597-.212-.29-1.782-2.371-1.782-4.523 0-2.152 1.094-3.202 1.535-3.652.361-.37.96-.536 1.534-.536.186 0 .352.009.502.016.441.019.661.046.952.742.362.872 1.243 3.024 1.35 3.244.105.221.211.52.06.811-.14.3-.264.434-.484.689-.22.255-.433.45-.652.723-.203.238-.433.494-.177.935.257.433 1.138 1.87 2.433 3.024 1.675 1.49 3.033 1.967 3.518 2.17.361.15.794.114 1.058-.168.335-.362.75-.96 1.173-1.552.3-.424.679-.476 1.075-.327.406.141 2.549 1.2 2.99 1.42.44.221.73.326.836.512.106.186.106 1.058-.256 2.081z" fill="#7FD371"/><path d="M0 15c0 3.28 1.059 6.322 2.856 8.791L.988 29.365l5.765-1.843A14.88 14.88 0 0015.005 30C23.275 30 30 23.271 30 15c0-8.272-6.726-15-14.995-15h-.01L0 15zm23.732 6.181c-.36 1.023-1.798 1.87-2.944 2.117-.785.167-1.807.3-5.254-1.129-4.408-1.825-7.247-6.305-7.467-6.597-.212-.29-1.782-2.371-1.782-4.523 0-2.152 1.094-3.202 1.535-3.652.361-.37.96-.536 1.534-.536.186 0 .352.009.502.016.441.019.661.046.952.742.362.872 1.243 3.024 1.35 3.244.105.221.211.52.06.811-.14.3-.264.434-.484.689-.22.255-.433.45-.652.723-.203.238-.433.494-.177.935.257.433 1.138 1.87 2.433 3.024 1.675 1.49 3.033 1.967 3.518 2.17.361.15.794.114 1.058-.168.335-.362.75-.96 1.173-1.552.3-.424.679-.476 1.075-.327.406.141 2.549 1.2 2.99 1.42.44.221.73.326.836.512.106.186.106 1.058-.256 2.081z" fill="#6DBC61"/><path d="M19.8.791c3.825 3.27 6.322 8.267 6.322 12.498 0 2.33-.76 4.51-2.078 6.384-.018.386-.103.92-.312 1.508-.36 1.023-1.798 1.87-2.944 2.117a3.987 3.987 0 01-.734.096c-2.51 1.566-5.621 2.492-8.991 2.492-3.035 0-5.859-.753-8.224-2.046L.99 29.365l5.764-1.843A14.881 14.881 0 0015.005 30C23.275 30 30 23.271 30 15 30 8.406 25.724 2.797 19.8.791z" fill="#549B45"/><path d="M20.163 17.169c.1.034.306.125.565.245L10.704 7.391c.035.066.07.142.106.228.361.872 1.243 3.025 1.349 3.245.105.22.212.52.061.81-.141.3-.264.434-.484.69-.221.254-.433.45-.653.722-.203.238-.433.494-.176.935.256.433 1.137 1.87 2.433 3.024 1.674 1.49 3.032 1.967 3.518 2.17.36.15.793.114 1.058-.168.335-.361.75-.96 1.172-1.551.3-.425.679-.477 1.075-.327z" fill="#549B45"/><path d="M6.286 11.062l-.098.1.107.107c-.003-.069-.009-.138-.009-.207z" fill="#5CAA4F"/></g><defs><clipPath id="clip0"><path fill="#fff" d="M0 0h30v30H0z"/></clipPath></defs></svg>