<svg width="36" height="36" viewBox="0 0 36 36" fill="none" xmlns="http://www.w3.org/2000/svg">
<path d="M23.1426 11.1429H9.42829" stroke="#70231C" stroke-width="1.14286" stroke-linecap="round" stroke-linejoin="round"/>
<path d="M23.1426 17.9966H14.5711" stroke="#70231C" stroke-width="1.14286" stroke-linecap="round" stroke-linejoin="round"/>
<path d="M23.1426 24.8571H9.42829" stroke="#70231C" stroke-width="1.14286" stroke-linecap="round" stroke-linejoin="round"/>
<path fill-rule="evenodd" clip-rule="evenodd" d="M28.2874 12.8571C27.4303 12.8571 26.5731 12 26.5731 11.1428C26.5731 10.2857 27.4303 9.42856 28.2874 9.42856C29.1446 9.42856 30 10.2857 30 11.1428C30 12 29.1446 12.8571 28.2874 12.8571ZM28.2874 19.7143C27.4303 19.7143 26.5731 18.8571 26.5731 18C26.5731 17.1428 27.4303 16.2857 28.2874 16.2857C29.1446 16.2857 30 17.1428 30 18C30 18.8571 29.1446 19.7143 28.2874 19.7143ZM28.2874 26.5714C27.4303 26.5714 26.5731 25.7143 26.5731 24.8571C26.5731 24 27.4303 23.1428 28.2874 23.1428C29.1446 23.1428 30 24 30 24.8571C30 25.7143 29.1446 26.5714 28.2874 26.5714Z" fill="#70231C"/>
</svg>
