<svg width="66" height="66" viewBox="0 0 66 66" fill="none" xmlns="http://www.w3.org/2000/svg">
<g clip-path="url(#clip0)">
<path d="M12.8628 0.419434C6.28806 0.419434 0.994141 5.71336 0.994141 12.288V53.5509C0.994141 60.1256 6.28806 65.4195 12.8628 65.4195H35.2268V40.0085H28.5075V30.8598H35.2268V23.0435C35.2268 16.9027 39.197 11.2643 48.3426 11.2643C52.0455 11.2643 54.7837 11.6198 54.7837 11.6198L54.5684 20.1632C54.5684 20.1632 51.7758 20.1369 48.7285 20.1369C45.4305 20.1369 44.9016 21.6564 44.9016 24.1791V30.8598H54.8304L54.3977 40.0086H44.9016V65.4196H54.1255C60.7002 65.4196 65.9941 60.1256 65.9941 53.551V12.2881C65.9941 5.71342 60.7002 0.419499 54.1255 0.419499H12.8627L12.8628 0.419434Z" fill="url(#paint0_linear)"/>
</g>
<defs>
<linearGradient id="paint0_linear" x1="33.4941" y1="0.419434" x2="33.4941" y2="65.4196" gradientUnits="userSpaceOnUse">
<stop stop-color="#FFE175"/>
<stop offset="1" stop-color="#FFC01B"/>
</linearGradient>
<clipPath id="clip0">
<rect width="65" height="65" fill="white" transform="translate(0.994141 0.419434)"/>
</clipPath>
</defs>
</svg>
