<svg width="80" height="80" viewBox="0 0 80 80" fill="none" xmlns="http://www.w3.org/2000/svg">
<g clip-path="url(#clip0)">
<path d="M40 80C62.0914 80 80 62.0914 80 40C80 17.9086 62.0914 0 40 0C17.9086 0 0 17.9086 0 40C0 62.0914 17.9086 80 40 80Z" fill="url(#paint0_linear)"/>
<path d="M80.0011 40C80.0011 37.9945 79.8516 36.0242 79.5667 34.0981L61.5525 16.0837L46.4453 58.9176L61.3547 73.827C72.5597 66.7389 80.0011 54.2392 80.0011 40Z" fill="#FE8A01"/>
<path d="M38.557 35.2656C40.5539 35.2656 42.1727 33.6468 42.1727 31.65C42.1727 29.6531 40.5539 28.0344 38.557 28.0344C36.5602 28.0344 34.9414 29.6531 34.9414 31.65C34.9414 33.6468 36.5602 35.2656 38.557 35.2656Z" fill="#F2D99C"/>
<path d="M63.9262 35.2656C65.923 35.2656 67.5418 33.6468 67.5418 31.65C67.5418 29.6531 65.923 28.0344 63.9262 28.0344C61.9293 28.0344 60.3105 29.6531 60.3105 31.65C60.3105 33.6468 61.9293 35.2656 63.9262 35.2656Z" fill="#DBC189"/>
<path d="M69.7753 53.0691L58.0156 51.5647C56.572 51.38 55.4905 50.1513 55.4905 48.696V43.3621H46.9953V48.696C46.9953 50.1514 45.9137 51.38 44.4702 51.5647L32.7105 53.0691C29.1108 53.5296 26.4141 56.5933 26.4141 60.2224V65.6736C32.8825 71.8107 41.6227 75.5764 51.243 75.5764C54.4183 75.5764 57.4967 75.1638 60.4302 74.3935C66.9578 70.5077 72.2852 64.8177 75.7241 58.0099C74.8864 55.4114 72.6117 53.4319 69.7753 53.0691Z" fill="#E0C082"/>
<path d="M58.1706 45.5753L56.1745 46.6502C53.1072 48.3017 49.4155 48.3017 46.3481 46.6502L44.352 45.5753C40.6658 43.5905 38.3672 39.7419 38.3672 35.5553V23.2428H64.1556V35.5553C64.1555 39.7419 61.8567 43.5905 58.1706 45.5753Z" fill="#FFECB3"/>
<path d="M51.1543 23.2428V47.8872C52.8802 47.9053 54.6096 47.4936 56.1762 46.6501L58.1723 45.5753C61.8585 43.5905 64.1571 39.7419 64.1571 35.5553V23.2428H51.1543Z" fill="#FFD863"/>
<path d="M75.7242 58.0098C74.8866 55.4114 72.612 53.4318 69.7755 53.069L59.8228 51.7959C57.677 54.0848 54.6281 55.517 51.243 55.517C47.8578 55.517 44.8089 54.0848 42.6631 51.7959L32.7105 53.069C29.1108 53.5295 26.4141 56.5932 26.4141 60.2223V65.6736C30.6056 69.6504 35.7514 75.9954 41.4723 79.9703C56.4597 79.4279 69.3431 70.6423 75.7242 58.0098Z" fill="white"/>
<path d="M75.7234 58.0098C74.8858 55.4114 72.6112 53.4318 69.7747 53.069L59.822 51.7959C57.6762 54.0848 54.6273 55.517 51.2422 55.517V78.3957C61.9406 75.2684 70.7817 67.7926 75.7234 58.0098Z" fill="#F2F2F2"/>
<path d="M50.6297 55.5009C47.4903 55.3396 44.6777 53.9461 42.6622 51.7959L38.3672 52.3453L45.1681 61.1217L51.242 55.5198C51.0363 55.5198 50.8322 55.5132 50.6297 55.5009Z" fill="#E0E0E0"/>
<path d="M51.2422 55.5198L57.3161 61.1217L64.117 52.3453L59.822 51.7959C57.8064 53.9461 54.9939 55.3396 51.8545 55.5009C51.6519 55.5132 51.4478 55.5198 51.2422 55.5198Z" fill="#E0E0E0"/>
<path d="M64.0074 37.1467H66.2722V27.012C66.2722 18.7045 59.5232 11.9732 51.209 12.002C42.9132 12.0307 36.252 18.8792 36.252 27.175V37.1467H38.3679V30.1431C48.1888 31.4151 55.9623 24.3898 55.9623 24.3898C55.9623 24.3898 59.3701 30.9923 64.0074 32.1632V37.1467Z" fill="#4D4D4D"/>
<path d="M51.2098 12.0019C51.1912 12.0019 51.1727 12.0026 51.1543 12.0028V27.587C54.144 26.0336 55.963 24.3898 55.963 24.3898C55.963 24.3898 59.3709 30.9923 64.0082 32.1633V37.1467H66.273V27.012C66.273 18.7044 59.5241 11.9731 51.2098 12.0019Z" fill="#333333"/>
<path d="M39.5941 35.3H10.6348V59.0609H39.5941V35.3Z" fill="#754C24"/>
<path d="M39.5945 35.3H24.9258V59.0609H39.5945V35.3Z" fill="#603813"/>
<path d="M40.5191 57.5386L30.731 56.2866C29.5295 56.1328 28.6291 55.1102 28.6291 53.8988V49.4592H21.5582V53.8988C21.5582 55.1102 20.658 56.1328 19.4565 56.2866L9.66836 57.5386C7.8907 57.7659 6.37992 58.7577 5.44336 60.1563C10.7573 69.2466 19.5534 76.053 30.0038 78.7411C35.8476 77.9155 41.2249 75.6392 45.7598 72.2873V63.4924C45.7599 60.4719 43.5154 57.9219 40.5191 57.5386Z" fill="#F2D99C"/>
<path d="M40.5209 57.5386L30.7328 56.2866C29.5313 56.1328 28.6309 55.1102 28.6309 53.8988V49.4592H24.9258V77.0591C26.5678 77.7278 28.2631 78.293 30.0056 78.7413C35.8494 77.9156 41.2267 75.6392 45.7616 72.2875V63.4925C45.7617 60.4719 43.5172 57.9219 40.5209 57.5386Z" fill="#D3BC88"/>
<path d="M31.7797 50.1455L29.8541 51.1823C26.8952 52.7756 23.3337 52.7756 20.3748 51.1823L18.4492 50.1455C14.8933 48.2308 12.6758 44.5183 12.6758 40.4795V28.6022H37.5528V40.4795C37.5531 44.5181 35.3356 48.2308 31.7797 50.1455Z" fill="#FFECB3"/>
<path d="M24.9258 28.6022V52.3744C26.6184 52.4063 28.3175 52.0097 29.8539 51.1823L31.7795 50.1455C35.3355 48.2308 37.5528 44.5183 37.5528 40.4795V28.6022H24.9258Z" fill="#FFD863"/>
<path d="M40.5209 57.5386L32.2369 56.4789C30.4508 58.3841 27.9131 59.5761 25.0956 59.5761C22.2781 59.5761 19.7403 58.3841 17.9542 56.4789L9.67031 57.5386C7.89266 57.766 6.38187 58.7577 5.44531 60.1563C12.2919 71.8683 24.9209 79.7852 39.417 79.9925C41.5798 79.9568 43.6994 79.7441 43.7503 79.3666V63.4925C45.7617 60.4719 43.5172 57.9219 40.5209 57.5386Z" fill="#D5362B"/>
<path d="M40.5208 57.5386L32.2367 56.4789C30.4506 58.3841 27.913 59.5763 25.0955 59.5763C25.0384 59.5763 24.9825 59.5729 24.9258 59.5718V77.0579C29.4083 78.8829 34.2958 79.9194 39.4169 79.9927C41.5797 79.9569 46.3181 79.5182 46.3691 79.1407L46.4444 63.3297C48.4558 60.3091 43.517 57.9219 40.5208 57.5386Z" fill="#70231C"/>
<path d="M25.0634 17.7585C17.0607 17.7861 10.6348 24.3925 10.6348 32.3953V52.6153L12.3304 48.5914C12.8185 47.4331 13.0699 46.1889 13.0699 44.932V36.8374C26.0248 35.1961 30.7916 29.2402 30.7916 29.2402C30.7916 29.2402 32.5465 33.4128 37.1591 36.8524V44.932C37.1591 46.1889 37.4105 47.4331 37.8987 48.5913L39.5943 52.6152V32.238C39.5943 24.2241 33.0838 17.7306 25.0634 17.7585Z" fill="#8C6239"/>
<path d="M39.5941 32.238C39.5941 24.2239 33.0836 17.7306 25.0631 17.7583C25.0172 17.7584 24.9716 17.7598 24.9258 17.7605V33.4425C29.0805 31.3761 30.7914 29.2398 30.7914 29.2398C30.7914 29.2398 32.5462 33.4125 37.1589 36.852V44.9317C37.1589 46.1886 37.4103 47.4328 37.8984 48.5911L39.5941 52.615V32.238Z" fill="#754C24"/>
<path d="M32.3473 56.4531C33.8151 56.4531 35.0051 55.2631 35.0051 53.7953C35.0051 52.3274 33.8151 51.1375 32.3473 51.1375C30.8794 51.1375 29.6895 52.3274 29.6895 53.7953C29.6895 55.2631 30.8794 56.4531 32.3473 56.4531Z" fill="#F2D99C"/>
<path d="M50.9957 56.4531C52.4636 56.4531 53.6535 55.2631 53.6535 53.7953C53.6535 52.3274 52.4636 51.1375 50.9957 51.1375C49.5278 51.1375 48.3379 52.3274 48.3379 53.7953C48.3379 55.2631 49.5278 56.4531 50.9957 56.4531Z" fill="#EAD09D"/>
<path d="M40.0007 80C47.2538 80 54.0559 78.0694 59.9215 74.6942C59.8702 72.0725 57.9066 69.8745 55.2952 69.5405L46.6505 68.4347C45.5893 68.2989 44.7943 67.3958 44.7943 66.3258V62.4048H38.5495V66.3258C38.5495 67.3956 37.7545 68.2989 36.6932 68.4347L28.0485 69.5405C25.4023 69.8789 23.4199 72.1311 23.4199 74.7989V76.4109C28.4716 78.715 34.0859 80 40.0007 80Z" fill="#F2D99C"/>
<path d="M55.2952 69.5405L46.6505 68.4347C45.5892 68.2989 44.7942 67.3958 44.7942 66.3258V62.4048H41.5742V79.9683C48.237 79.7105 54.482 77.8241 59.9214 74.6942C59.8702 72.0727 57.9066 69.8745 55.2952 69.5405Z" fill="#DBC491"/>
<path d="M46.7647 64.0318L45.2973 64.8219C43.0425 66.036 40.3286 66.036 38.0739 64.8219L36.6066 64.0318C33.8969 62.5727 32.207 59.7437 32.207 56.666V47.6151H51.1642V56.666C51.1642 59.7437 49.4744 62.5727 46.7647 64.0318Z" fill="#FFECB3"/>
<path d="M41.5742 47.6151V65.7291C42.8536 65.7479 44.1366 65.4472 45.298 64.8219L46.7653 64.0318C49.475 62.5727 51.1648 59.7436 51.1648 56.666V47.6151H41.5742Z" fill="#FFD863"/>
<path d="M39.9986 80C47.2517 80 54.0538 78.0694 59.9194 74.6942C59.8681 72.0725 57.9045 69.8746 55.2931 69.5405L47.9769 68.6046C46.3995 70.2872 44.1583 71.34 41.6698 71.34C39.1814 71.34 36.9402 70.2872 35.3628 68.6046L28.0466 69.5405C25.4003 69.8789 23.418 72.1311 23.418 74.7989V76.411C28.4695 78.715 34.0837 80 39.9986 80Z" fill="#FFCF35"/>
<path d="M41.6719 71.34V79.9627C48.298 79.6902 54.5087 77.8088 59.9214 74.6942C59.8702 72.0725 57.9066 69.8746 55.2952 69.5405L47.9789 68.6046C46.4016 70.2872 44.1603 71.34 41.6719 71.34Z" fill="#FFC000"/>
<path d="M51.0555 57.8357H52.7205V50.3856C52.7205 44.2787 47.7592 39.3304 41.6473 39.3515C35.5491 39.3726 30.6523 44.407 30.6523 50.5053V57.8356H32.2078V55.1073C39.4272 56.0424 45.1416 49.5643 45.1416 49.5643C45.1416 49.5643 47.6467 54.6609 51.0556 55.5217V57.8357H51.0555Z" fill="#FF9451"/>
<path d="M41.6472 39.3517C41.6228 39.3518 41.5987 39.3536 41.5742 39.3539V52.5609C43.7911 51.0951 45.1412 49.5647 45.1412 49.5647C45.1412 49.5647 47.6464 54.6612 51.0553 55.522V57.8359H52.7203V50.3857C52.7203 44.2787 47.7591 39.3306 41.6472 39.3517Z" fill="#F7674F"/>
<path d="M41.4467 50.7975C45.7386 50.7975 49.5126 51.8081 51.6894 53.3358H52.7205V49.2874C52.7205 43.1803 47.7592 38.2322 41.6473 38.2533C35.5491 38.2744 30.6523 43.3088 30.6523 49.407V53.3356H31.2042C33.3808 51.8081 37.1548 50.7975 41.4467 50.7975Z" fill="#D5362B"/>
<path d="M41.6472 38.2536C41.6228 38.2536 41.5987 38.2555 41.5742 38.2558V50.7986C45.8131 50.8185 49.5342 51.8235 51.6892 53.3361H52.7203V49.2875C52.7203 43.1806 47.7591 38.2324 41.6472 38.2536Z" fill="#70231C"/>
<path d="M52.7205 55.8689C46.6266 49.775 36.7462 49.775 30.6523 55.8689C30.6523 54.8875 30.6523 53.906 30.6523 52.9246C36.7462 46.8306 46.6266 46.8306 52.7205 52.9246C52.7205 53.906 52.7205 54.8874 52.7205 55.8689Z" fill="#FFB8B4"/>
<path d="M41.5742 48.3553V51.2997C45.605 51.2709 49.6448 52.7934 52.7203 55.8687C52.7203 54.8873 52.7203 53.9058 52.7203 52.9244C49.6448 49.8491 45.605 48.3267 41.5742 48.3553Z" fill="#E2594F"/>
</g>
<defs>
<linearGradient id="paint0_linear" x1="40" y1="0" x2="40" y2="80" gradientUnits="userSpaceOnUse">
<stop stop-color="#FFE175"/>
<stop offset="1" stop-color="#FFC01B"/>
</linearGradient>
<clipPath id="clip0">
<rect width="80" height="80" fill="white"/>
</clipPath>
</defs>
</svg>
