<svg width="80" height="80" viewBox="0 0 80 80" fill="none" xmlns="http://www.w3.org/2000/svg">
<path d="M40 80C62.0914 80 80 62.0914 80 40C80 17.9086 62.0914 0 40 0C17.9086 0 0 17.9086 0 40C0 62.0914 17.9086 80 40 80Z" fill="url(#paint0_linear)"/>
<path d="M79.9867 41.0109L69.757 30.7812H10.2422L15.6625 36.2016L10.3602 50.7281L39.6275 79.9953C39.7516 79.9964 39.8752 80 39.9995 80C61.753 80.0002 79.4503 62.6352 79.9867 41.0109Z" fill="#FE8A01"/>
<path d="M16.3018 31.4062H13.1768V44.6359H16.3018V31.4062Z" fill="#666666"/>
<path d="M58.4043 49.58C47.573 57.9817 32.427 57.9817 21.5957 49.58C21.5957 42.6336 21.5957 35.687 21.5957 28.7406C33.8652 28.7406 46.1348 28.7406 58.4043 28.7406C58.4043 35.687 58.4043 42.6336 58.4043 49.58Z" fill="#BB3026"/>
<path d="M40 28.74V55.8795C46.4273 55.902 52.9608 53.8025 58.4044 49.58C58.4044 42.6336 58.4044 35.687 58.4044 28.7406C52.2361 28.7406 46.0678 28.7406 40 28.74Z" fill="#690B04"/>
<path d="M39.9995 43.8324L10.2422 30.7811L39.9995 17.73L69.757 30.7813L39.9995 43.8324Z" fill="#D4362B"/>
<path d="M40 43.8324L69.7575 30.7813L40 17.73V43.8324Z" fill="#BB3026"/>
<path d="M19.0141 50.728H10.3604L12.031 42.0312H17.3435L19.0141 50.728Z" fill="url(#paint1_linear)"/>
<defs>
<linearGradient id="paint0_linear" x1="40" y1="0" x2="40" y2="80" gradientUnits="userSpaceOnUse">
<stop stop-color="#FFE175"/>
<stop offset="1" stop-color="#FFC01B"/>
</linearGradient>
<linearGradient id="paint1_linear" x1="14.6872" y1="42.0312" x2="14.6872" y2="50.728" gradientUnits="userSpaceOnUse">
<stop stop-color="#D5352A"/>
<stop offset="1" stop-color="#BA2F25"/>
</linearGradient>
</defs>
</svg>
