<svg width="32" height="32" viewBox="0 0 32 32" fill="none" xmlns="http://www.w3.org/2000/svg">
<g clip-path="url(#clip0)">
<path d="M20.91 0.000106812H11.087C2.12305 0.000106812 -0.00195312 2.12511 -0.00195312 11.0891V20.9121C-0.00195312 29.8761 2.12305 32.0011 11.087 32.0011H20.91C29.874 32.0011 31.999 29.8761 31.999 20.9121V11.0891C31.999 2.12511 29.853 0.000106812 20.91 0.000106812ZM25.832 22.8281H23.509C22.629 22.8281 22.358 22.1301 20.775 20.5261C19.4 19.1931 18.791 19.0161 18.452 19.0161C17.973 19.0161 17.837 19.1511 17.837 19.8081V21.9071C17.837 22.4701 17.66 22.8081 16.17 22.8081C13.706 22.8081 10.972 21.3181 9.05505 18.5421C6.16405 14.4741 5.37305 11.4271 5.37305 10.7971C5.37305 10.4581 5.50805 10.1411 6.15905 10.1411H8.48705C9.07605 10.1411 9.30005 10.4121 9.52905 11.0421C10.68 14.3651 12.597 17.2761 13.388 17.2761C13.68 17.2761 13.815 17.1411 13.815 16.3961V12.9641C13.726 11.3811 12.893 11.2451 12.893 10.6831C12.893 10.4121 13.117 10.1411 13.476 10.1411H17.137C17.632 10.1411 17.814 10.4121 17.814 10.9951V15.6251C17.814 16.1251 18.038 16.3021 18.173 16.3021C18.465 16.3021 18.715 16.1251 19.256 15.5831C20.928 13.7081 22.126 10.8171 22.126 10.8171C22.282 10.4781 22.553 10.1611 23.142 10.1611H25.47C26.168 10.1611 26.324 10.5201 26.168 11.0201C25.876 12.3741 23.027 16.3951 23.027 16.3951C22.782 16.8011 22.688 16.9781 23.027 17.4311C23.277 17.7701 24.09 18.4731 24.631 19.1031C25.626 20.2331 26.391 21.1811 26.595 21.8371C26.824 22.4881 26.486 22.8271 25.829 22.8271L25.832 22.8281Z" fill="white"/>
</g>
<defs>
<clipPath id="clip0">
<rect width="32" height="32" fill="white"/>
</clipPath>
</defs>
</svg>
