<svg width="66" height="66" viewBox="0 0 66 66" fill="none" xmlns="http://www.w3.org/2000/svg">
<g clip-path="url(#clip0)">
<path d="M33.4945 22.0859C30.6213 22.0859 27.8658 23.2273 25.8341 25.2589C23.8025 27.2906 22.6611 30.0461 22.6611 32.9193C22.6611 35.7924 23.8025 38.548 25.8341 40.5796C27.8658 42.6112 30.6213 43.7526 33.4945 43.7526C36.3676 43.7526 39.1231 42.6112 41.1548 40.5796C43.1864 38.548 44.3278 35.7924 44.3278 32.9193C44.3278 30.0461 43.1864 27.2906 41.1548 25.2589C39.1231 23.2273 36.3676 22.0859 33.4945 22.0859Z" fill="url(#paint0_linear)"/>
<path fill-rule="evenodd" clip-rule="evenodd" d="M20.4941 0.419434C15.3224 0.419434 10.3625 2.47389 6.70556 6.13085C3.0486 9.78781 0.994141 14.7477 0.994141 19.9194L0.994141 45.9194C0.994141 51.0912 3.0486 56.0511 6.70556 59.708C10.3625 63.365 15.3224 65.4194 20.4941 65.4194H46.4941C51.6659 65.4194 56.6258 63.365 60.2827 59.708C63.9397 56.0511 65.9941 51.0912 65.9941 45.9194V19.9194C65.9941 14.7477 63.9397 9.78781 60.2827 6.13085C56.6258 2.47389 51.6659 0.419434 46.4941 0.419434L20.4941 0.419434ZM18.3275 32.9194C18.3275 28.897 19.9254 25.0393 22.7697 22.195C25.614 19.3507 29.4717 17.7528 33.4941 17.7528C37.5166 17.7528 41.3743 19.3507 44.2186 22.195C47.0629 25.0393 48.6608 28.897 48.6608 32.9194C48.6608 36.9419 47.0629 40.7996 44.2186 43.6439C41.3743 46.4882 37.5166 48.0861 33.4941 48.0861C29.4717 48.0861 25.614 46.4882 22.7697 43.6439C19.9254 40.7996 18.3275 36.9419 18.3275 32.9194ZM48.6608 17.7528H52.9941V13.4194H48.6608V17.7528Z" fill="url(#paint1_linear)"/>
</g>
<defs>
<linearGradient id="paint0_linear" x1="33.4945" y1="22.0859" x2="33.4945" y2="43.7526" gradientUnits="userSpaceOnUse">
<stop stop-color="#FFE175"/>
<stop offset="1" stop-color="#FFC01B"/>
</linearGradient>
<linearGradient id="paint1_linear" x1="33.4941" y1="0.419434" x2="33.4941" y2="65.4194" gradientUnits="userSpaceOnUse">
<stop stop-color="#FFE175"/>
<stop offset="1" stop-color="#FFC01B"/>
</linearGradient>
<clipPath id="clip0">
<rect width="65" height="65" fill="white" transform="translate(0.994141 0.419434)"/>
</clipPath>
</defs>
</svg>
