<svg width="80" height="80" viewBox="0 0 80 80" fill="none" xmlns="http://www.w3.org/2000/svg">
<path d="M40 80C62.0914 80 80 62.0914 80 40C80 17.9086 62.0914 0 40 0C17.9086 0 0 17.9086 0 40C0 62.0914 17.9086 80 40 80Z" fill="url(#paint0_linear)"/>
<path d="M79.9997 40C79.9997 38.8895 79.9544 37.7897 79.8657 36.702L54.0483 10.8848L25.9511 27.3623L38.7108 40.122L35.8138 42.195L27.6974 34.0786L19.7257 41.8917L26.6229 48.7715L14.6729 57.3223L37.2577 79.9073C38.1638 79.9687 39.0782 80 39.9997 80C62.0911 80 79.9997 62.0914 79.9997 40Z" fill="#FE8A01"/>
<path d="M29.1764 39.3225C29.8854 36.3232 28.0287 33.3171 25.0294 32.6081C22.0301 31.8991 19.024 33.7558 18.315 36.7551C17.606 39.7544 19.4627 42.7605 22.462 43.4695C25.4613 44.1785 28.4674 42.3218 29.1764 39.3225Z" fill="#FFC9BD"/>
<path d="M32.8257 57.3225H14.6729V53.1581C14.6729 48.1453 18.7364 44.0817 23.7493 44.0817C28.7619 44.0817 32.8257 48.1453 32.8257 53.1581V57.3225Z" fill="#D5362B"/>
<path d="M61.6852 39.3306C62.3941 36.3314 60.5375 33.3252 57.5382 32.6162C54.5389 31.9072 51.5327 33.7639 50.8238 36.7632C50.1148 39.7625 51.9714 42.7687 54.9707 43.4776C57.97 44.1866 60.9762 42.3299 61.6852 39.3306Z" fill="#FFC9BD"/>
<path d="M65.3266 57.3224H47.1738V53.1581C47.1738 48.1453 51.2374 44.0817 56.2502 44.0817C61.263 44.0817 65.3266 48.1453 65.3266 53.1581V57.3224Z" fill="#D5362B"/>
<path d="M47.1961 42.5446C47.8413 38.5644 45.1378 34.8148 41.1576 34.1695C37.1774 33.5243 33.4278 36.2279 32.7825 40.2081C32.1373 44.1883 34.8408 47.9379 38.821 48.5831C42.8012 49.2284 46.5509 46.5248 47.1961 42.5446Z" fill="#F9C0B3"/>
<path d="M47.3017 41.3805C47.3017 45.4131 44.0327 48.6822 40 48.6822V34.0787C44.0327 34.0787 47.3017 37.3478 47.3017 41.3805Z" fill="#FFC9BD"/>
<path d="M51.8741 66.6281H28.126V61.1802C28.126 54.6223 33.4422 49.3061 40 49.3061C46.5579 49.3061 51.8741 54.6223 51.8741 61.1802V66.6281Z" fill="#D5362B"/>
<path d="M51.8741 66.6281H40V49.3061C46.5578 49.3061 51.8741 54.6223 51.8741 61.1802V66.6281Z" fill="#BB3026"/>
<path d="M54.0483 10.8848H25.9512V27.3623H36.5526L39.9998 32.8319L43.4469 27.3623H54.0483V10.8848Z" fill="#D5362B"/>
<path d="M54.0486 10.8848H40V32.8319L43.4472 27.3623H54.0486V10.8848Z" fill="#BB3026"/>
<defs>
<linearGradient id="paint0_linear" x1="40" y1="0" x2="40" y2="80" gradientUnits="userSpaceOnUse">
<stop stop-color="#FFE175"/>
<stop offset="1" stop-color="#FFC01B"/>
</linearGradient>
</defs>
</svg>
