<svg width="80" height="80" viewBox="0 0 80 80" fill="none" xmlns="http://www.w3.org/2000/svg">
<path d="M40 80C62.0914 80 80 62.0914 80 40C80 17.9086 62.0914 0 40 0C17.9086 0 0 17.9086 0 40C0 62.0914 17.9086 80 40 80Z" fill="url(#paint0_linear)"/>
<path d="M80 40C80 39.9819 79.9994 39.9639 79.9994 39.9458L58.6472 18.5938L15.6445 58.552L36.9794 79.8869C37.9766 79.9614 38.9837 80 40 80C62.0914 80 80 62.0914 80 40Z" fill="#FE8A01"/>
<path d="M15.6445 24.302V58.552H33.2358C34.1777 60.2359 36.775 61.4062 40.0002 61.4062C43.2253 61.4062 45.8227 60.2359 46.7645 58.552H64.3558V24.302H15.6445Z" fill="#D5362B"/>
<path d="M64.3556 24.302V58.552H46.7644C45.8225 60.2359 43.2252 61.4062 40 61.4062V24.302H64.3556Z" fill="#70231C"/>
<path d="M42.2554 18.5938L40.0007 20.8484L37.746 18.5938H21.3535V52.8438H36.5471L40.0007 56.2972L43.4543 52.8438H58.6479V18.5938H42.2554Z" fill="#E7E7E7"/>
<path d="M58.6472 18.5938V52.8438H43.4536L40 56.2972V20.8484L42.2547 18.5938H58.6472Z" fill="#D3D3D8"/>
<defs>
<linearGradient id="paint0_linear" x1="40" y1="0" x2="40" y2="80" gradientUnits="userSpaceOnUse">
<stop stop-color="#FFE175"/>
<stop offset="1" stop-color="#FFC01B"/>
</linearGradient>
</defs>
</svg>
