<svg width="80" height="80" viewBox="0 0 80 80" fill="none" xmlns="http://www.w3.org/2000/svg">
<g clip-path="url(#clip0)">
<path d="M40 80C62.0914 80 80 62.0914 80 40C80 17.9086 62.0914 0 40 0C17.9086 0 0 17.9086 0 40C0 62.0914 17.9086 80 40 80Z" fill="url(#paint0_linear)"/>
<path d="M46.9713 79.3933C65.739 76.0944 79.9996 59.7131 79.9996 40C79.9996 39.632 79.9938 39.2656 79.984 38.9L58.6626 17.5787L15.0293 31.8292L29.3204 46.1203L15.4018 47.8236L46.9713 79.3933Z" fill="#FE8A01"/>
<path d="M20.3966 32.1375H56.9453V19.2975H20.3966C16.8509 19.2975 13.9766 22.1719 13.9766 25.7175C13.9764 29.2631 16.8508 32.1375 20.3966 32.1375Z" fill="#FFECB3"/>
<path d="M56.9438 19.2969H39.9922V32.1375H56.9438V19.2969Z" fill="#FFD863"/>
<path d="M58.6621 33.8562H20.3946C15.9068 33.8562 12.2559 30.2051 12.2559 25.7175C12.2559 21.2297 15.9068 17.5787 20.3946 17.5787H58.6621V21.0162H20.3946C17.8023 21.0162 15.6934 23.1253 15.6934 25.7175C15.6934 28.3098 17.8023 30.4187 20.3946 30.4187H58.6621V33.8562Z" fill="#DC3707"/>
<path d="M58.6625 30.4188H39.9922V33.8563H58.6625V30.4188Z" fill="#C83A11"/>
<path d="M58.6625 17.5781H39.9922V21.0156H58.6625V17.5781Z" fill="#C83A11"/>
<path d="M20.3966 47.8238H56.9453V34.9838H20.3966C16.8509 34.9838 13.9766 37.8581 13.9766 41.4038C13.9764 44.9494 16.8508 47.8238 20.3966 47.8238Z" fill="#FFECB3"/>
<path d="M56.9438 34.9844H39.9922V47.825H56.9438V34.9844Z" fill="#FFD863"/>
<path d="M58.6621 49.5425H20.3946C15.9068 49.5425 12.2559 45.8914 12.2559 41.4038C12.2559 36.916 15.9068 33.265 20.3946 33.265H58.6621V36.7025H20.3946C17.8023 36.7025 15.6934 38.8116 15.6934 41.4038C15.6934 43.9961 17.8023 46.105 20.3946 46.105H58.6621V49.5425Z" fill="#70231C"/>
<path d="M58.6606 46.1047H39.9902V49.5422H58.6606V46.1047Z" fill="#70231C"/>
<path d="M58.6606 33.2656H39.9902V36.7031H58.6606V33.2656Z" fill="#70231C"/>
<path d="M41.0045 55.4104L53.4316 67.8375L58.7349 62.5343L46.3077 50.1071L41.0045 55.4104Z" fill="#DC3707"/>
<path d="M43.3756 53.0391L55.8027 65.4663L58.7362 62.5328L46.309 50.1057L43.3756 53.0391Z" fill="#C83A11"/>
<path d="M35.0289 56.6094C41.463 56.6094 46.6789 51.3935 46.6789 44.9594C46.6789 38.5253 41.463 33.3094 35.0289 33.3094C28.5948 33.3094 23.3789 38.5253 23.3789 44.9594C23.3789 51.3935 28.5948 56.6094 35.0289 56.6094Z" fill="white"/>
<path d="M46.6789 44.9589C46.6789 38.5244 41.4627 33.3083 35.0283 33.3083C31.8786 33.3083 29.0228 34.5603 26.9258 36.5913L43.3959 53.0614C45.4269 50.9644 46.6789 48.1086 46.6789 44.9589Z" fill="#E0E0E0"/>
<path d="M35.0276 59.2658C27.1387 59.2658 20.7207 52.8477 20.7207 44.9589C20.7207 37.0702 27.1387 30.652 35.0276 30.652C42.9165 30.652 49.3345 37.07 49.3345 44.9589C49.3345 52.8478 42.9165 59.2658 35.0276 59.2658ZM35.0276 35.9644C30.0681 35.9644 26.0332 39.9992 26.0332 44.9588C26.0332 49.9183 30.0681 53.9531 35.0276 53.9531C39.9871 53.9531 44.022 49.9183 44.022 44.9588C44.022 39.9994 39.9871 35.9644 35.0276 35.9644Z" fill="#FFE89D"/>
<path d="M35.0283 35.9644C39.9878 35.9644 44.0227 39.9992 44.0227 44.9587C44.0227 47.3712 43.0661 49.5631 41.5147 51.18L45.2711 54.9364C47.7842 52.357 49.3352 48.8359 49.3352 44.9587C49.3352 37.0698 42.9172 30.6519 35.0283 30.6519C31.1511 30.6519 27.63 32.2028 25.0508 34.7159L28.8072 38.4723C30.4239 36.9209 32.6158 35.9644 35.0283 35.9644Z" fill="#FFC36B"/>
</g>
<defs>
<linearGradient id="paint0_linear" x1="40" y1="0" x2="40" y2="80" gradientUnits="userSpaceOnUse">
<stop stop-color="#FFE175"/>
<stop offset="1" stop-color="#FFC01B"/>
</linearGradient>
<clipPath id="clip0">
<rect width="80" height="80" fill="white"/>
</clipPath>
</defs>
</svg>
