<svg width="80" height="80" viewBox="0 0 80 80" fill="none" xmlns="http://www.w3.org/2000/svg">
<g clip-path="url(#clip0)">
<path d="M78.7541 30.0584C74.3339 12.7767 58.6594 0 40 0C17.9087 0 0 17.9087 0 40C0 58.6594 12.7767 74.3339 30.0584 78.7541L78.7541 30.0584Z" fill="url(#paint0_linear)"/>
<path d="M78.7545 30.0584L60.87 12.1739L6.95703 44.3478L23.9756 61.3664L19.1309 67.8261L30.0589 78.7541C33.2375 79.5674 36.5684 80 40.0005 80C62.0917 80 80.0005 62.0913 80.0005 40C80.0005 36.568 79.5676 33.237 78.7545 30.0584Z" fill="#FE8A01"/>
<path d="M40.1734 12.1739L33.2168 40L40.1734 67.8261H50.6082L54.0863 60.8695L61.0429 57.3912V12.1739H40.1734Z" fill="#D8F4F2"/>
<path d="M40.1723 12.1739H19.3027V67.8261H40.1723V12.1739Z" fill="white"/>
<path d="M50.4355 67.8261V57.3913H60.8702L50.4355 67.8261Z" fill="#7DDCD4"/>
<path d="M59.1309 38.2609L62.6091 44.3478L67.8265 42.1739L69.5656 40L59.1309 38.2609Z" fill="#F97D85"/>
<path d="M62.6091 35.6522L59.1309 40H69.5656L67.8265 37.8261L62.6091 35.6522Z" fill="#FCBEC2"/>
<path d="M67.8262 42.1739L73.0435 40L67.8262 37.826V42.1739Z" fill="#70231C"/>
<path d="M10.4345 35.6522L8.69531 40L36.5214 43.4783L62.6084 40V35.6522H10.4345Z" fill="#FBD867"/>
<path d="M8.69531 40L10.4345 44.3478H62.6084V40H8.69531Z" fill="#F9BE02"/>
<path d="M6.95703 35.6522V40L8.69609 41.739L10.4353 40V35.6522H6.95703Z" fill="#D5362B"/>
<path d="M10.4353 40H6.95703V44.3478H10.4353V40Z" fill="#70231C"/>
</g>
<defs>
<linearGradient id="paint0_linear" x1="39.377" y1="0" x2="39.377" y2="78.7541" gradientUnits="userSpaceOnUse">
<stop stop-color="#FFE175"/>
<stop offset="1" stop-color="#FFC01B"/>
</linearGradient>
<clipPath id="clip0">
<rect width="80" height="80" fill="white"/>
</clipPath>
</defs>
</svg>
