<svg width="80" height="80" viewBox="0 0 80 80" fill="none" xmlns="http://www.w3.org/2000/svg">
<path d="M40 80C62.0914 80 80 62.0914 80 40C80 17.9086 62.0914 0 40 0C17.9086 0 0 17.9086 0 40C0 62.0914 17.9086 80 40 80Z" fill="url(#paint0_linear)"/>
<path d="M36.3193 59.0348L54.5534 77.2689C68.0871 71.98 78.0321 59.5326 79.7375 44.582L47.4617 12.3062L36.3193 59.0348Z" fill="#FE8A01"/>
<path d="M46.6663 45.6592H33.333V61.9555H46.6663V45.6592Z" fill="#FCD088"/>
<path d="M46.6668 45.6592H39.9111V61.9555H46.6668V45.6592Z" fill="#DDAB62"/>
<path d="M55.9002 57.1361L48.8346 55.723L47.5859 53.9001C47.3521 53.5589 46.9098 53.4303 46.5298 53.5931L39.9996 61.0147L33.5085 53.5959C33.1312 53.4314 32.6899 53.555 32.4532 53.8917L31.1646 55.7228L24.099 57.1359C20.5016 57.8556 17.9121 61.0142 17.9121 64.6828V73.3508C24.2415 77.5512 31.8343 80 39.9996 80C48.1649 80 55.7577 77.5512 62.0871 73.3508V64.6828C62.0871 61.0142 59.4976 57.8556 55.9002 57.1361Z" fill="#D5362B"/>
<path d="M55.9005 57.1361L48.8348 55.723L47.5861 53.9001C47.3523 53.5589 46.91 53.4303 46.53 53.5931L39.9998 61.0147L39.9102 60.912V79.9981C39.94 79.9981 39.9697 79.9997 39.9998 79.9997C48.1652 79.9997 55.758 77.5509 62.0873 73.3505V64.6825C62.0873 61.0142 59.4978 57.8556 55.9005 57.1361Z" fill="#BB3026"/>
<path d="M54.3018 32.1C54.3735 31.4369 54.4109 30.7831 54.4109 30.1455C54.4109 21.712 47.9589 14.8755 40.0001 14.8755C32.0414 14.8755 25.5893 21.712 25.5893 30.1455C25.5893 30.783 25.6268 31.4367 25.6984 32.1C24.3007 32.4634 23.6356 34.6136 24.2131 36.9151C24.7925 39.2239 26.4028 40.8091 27.8096 40.4559C27.9379 40.4239 28.0575 40.3719 28.1731 40.3111C30.7773 45.538 35.1029 49.7789 40.0001 49.7789C44.8973 49.7789 49.2231 45.5384 51.8271 40.3111C51.9428 40.372 52.0623 40.4239 52.1906 40.4559C53.5975 40.8091 55.2076 39.2239 55.7871 36.9151C56.3648 34.6136 55.6998 32.463 54.3018 32.1Z" fill="#FFEDB5"/>
<path d="M54.3016 32.1C54.3733 31.4369 54.4106 30.7831 54.4106 30.1455C54.4106 21.712 47.9586 14.8755 39.9998 14.8755C39.9697 14.8755 39.9403 14.8776 39.9102 14.878V49.7762C39.94 49.7766 39.97 49.7787 39.9998 49.7787C44.897 49.7787 49.2228 45.5383 51.8269 40.3109C51.9425 40.3719 52.062 40.4237 52.1903 40.4558C53.5972 40.8089 55.2073 39.2237 55.7869 36.915C56.3645 34.6136 55.6995 32.463 54.3016 32.1Z" fill="#E8CF89"/>
<path d="M39.9996 65.2338C40.3715 65.2338 40.673 64.9323 40.673 64.5603C40.673 64.1884 40.3715 63.8869 39.9996 63.8869C39.6277 63.8869 39.3262 64.1884 39.3262 64.5603C39.3262 64.9323 39.6277 65.2338 39.9996 65.2338Z" fill="white"/>
<path d="M39.9996 68.0163C40.3715 68.0163 40.673 67.7148 40.673 67.3428C40.673 66.9709 40.3715 66.6694 39.9996 66.6694C39.6277 66.6694 39.3262 66.9709 39.3262 67.3428C39.3262 67.7148 39.6277 68.0163 39.9996 68.0163Z" fill="white"/>
<path d="M39.9998 61.0325L33.7089 53.0555C33.4411 52.7419 32.9562 52.7425 32.6891 53.0566L30.2578 55.9147L35.5031 64.3074C35.94 65.0061 36.9509 65.0255 37.4139 64.3438L39.9998 61.0325Z" fill="white"/>
<path d="M40 61.0325L46.2909 53.0555C46.5587 52.7419 47.0436 52.7425 47.3108 53.0566L49.742 55.9147L44.4967 64.3074C44.0598 65.0061 43.0489 65.0255 42.5859 64.3438L40 61.0325Z" fill="#E0E0E0"/>
<path d="M46.2009 31.315C44.2843 31.315 42.675 32.6367 42.2248 34.4153H37.776C37.3257 32.6367 35.7165 31.315 33.8 31.315C32.1046 31.315 30.6464 32.348 30.0206 33.8173L26.6915 30.4881C26.4284 30.225 26.0023 30.225 25.7393 30.4881C25.4762 30.7511 25.4762 31.1773 25.7393 31.4403L29.6954 35.3967C29.6954 35.4048 29.694 35.4128 29.694 35.4209C29.694 37.6848 31.5359 39.5267 33.7998 39.5267C35.9487 39.5267 37.7142 37.8667 37.8884 35.7619H42.1123C42.2865 37.8664 44.052 39.5267 46.2009 39.5267C48.4648 39.5267 50.3067 37.6848 50.3067 35.4209C50.3067 33.157 48.4649 31.315 46.2009 31.315ZM33.7998 38.18C32.2784 38.18 31.0407 36.9423 31.0407 35.4209C31.0407 33.8995 32.2784 32.6619 33.7998 32.6619C35.3212 32.6619 36.5589 33.8995 36.5589 35.4209C36.5589 36.9422 35.3212 38.18 33.7998 38.18ZM46.2009 38.18C44.6795 38.18 43.4418 36.9423 43.4418 35.4209C43.4418 33.8995 44.6795 32.6619 46.2009 32.6619C47.7223 32.6619 48.96 33.8995 48.96 35.4209C48.96 36.9422 47.7223 38.18 46.2009 38.18Z" fill="#444444"/>
<path d="M46.2003 31.315C44.2837 31.315 42.6744 32.6367 42.2242 34.4153H39.9102V35.7622H42.1119C42.2861 37.8667 44.0516 39.527 46.2005 39.527C48.4644 39.527 50.3063 37.6852 50.3063 35.4213C50.3063 33.1573 48.4644 31.315 46.2003 31.315ZM46.2003 38.18C44.6789 38.18 43.4413 36.9423 43.4413 35.4209C43.4413 33.8995 44.6789 32.6619 46.2003 32.6619C47.7217 32.6619 48.9594 33.8995 48.9594 35.4209C48.9594 36.9422 47.7217 38.18 46.2003 38.18Z" fill="#333333"/>
<path d="M49.7166 35.7069C49.5442 35.7069 49.372 35.6411 49.2403 35.5097C48.9772 35.2467 48.9772 34.8205 49.2403 34.5575L53.3092 30.4883C53.5723 30.2251 53.9984 30.2251 54.2614 30.4883C54.5245 30.7512 54.5245 31.1775 54.2614 31.4405L50.1925 35.5097C50.0611 35.6409 49.8886 35.7069 49.7166 35.7069Z" fill="#444444"/>
<path d="M54.8148 22.5813C52.8625 19.3944 50.2693 16.6042 47.0567 14.9392C47.4265 14.4158 47.6318 13.8438 47.6318 13.2433C47.6318 10.7638 44.1547 8.75391 39.8654 8.75391C35.5762 8.75391 32.099 10.7639 32.099 13.2433C32.099 13.9116 32.3536 14.5452 32.8067 15.115C32.7275 15.1508 32.65 15.1819 32.5704 15.2188C22.1328 20.0672 23.5245 35.4881 24.1529 33.8719C24.7814 32.2558 25.6986 32.0997 25.6986 32.0997C31.1497 29.5866 34.5231 24.2422 34.5231 24.2422C34.5231 24.2422 53.1987 27.7889 50.5051 48.4397C50.505 48.4398 62.2947 34.7895 54.8148 22.5813Z" fill="#494948"/>
<path d="M54.8148 22.5813C52.8625 19.3944 50.2694 16.6042 47.0567 14.9392C47.4266 14.4158 47.6319 13.8438 47.6319 13.2433C47.6319 10.7727 44.1787 8.76861 39.9102 8.7547V26.2509C45.195 29.0084 52.2297 35.2185 50.5048 48.4397C50.505 48.4399 62.2947 34.7895 54.8148 22.5813Z" fill="#333333"/>
<defs>
<linearGradient id="paint0_linear" x1="40" y1="0" x2="40" y2="80" gradientUnits="userSpaceOnUse">
<stop stop-color="#FFE175"/>
<stop offset="1" stop-color="#FFC01B"/>
</linearGradient>
</defs>
</svg>
