<svg width="80" height="80" viewBox="0 0 80 80" fill="none" xmlns="http://www.w3.org/2000/svg">
<path d="M40 80C62.0914 80 80 62.0914 80 40C80 17.9086 62.0914 0 40 0C17.9086 0 0 17.9086 0 40C0 62.0914 17.9086 80 40 80Z" fill="url(#paint0_linear)"/>
<path d="M55.866 24.8811L63.6989 32.714V37.8778L43.4185 17.5972L36.7585 23.717L39.2469 26.1564L36.7591 31.2608L24.2518 18.7534L18.1974 24.7006L20.8868 27.3889L9.55957 50.0151L17.3286 57.7842L13.816 63.9651L28.0285 78.1776C31.8082 79.3617 35.8296 80 39.9999 80C62.0913 80 79.9999 62.0914 79.9999 40C79.9999 38.9567 79.9599 37.9226 79.8814 36.8994L61.7355 18.7534L55.866 24.8811Z" fill="#FE8A01"/>
<path d="M61.7354 47.2117H66.1838V63.9651H61.7354V47.2117Z" fill="#CDD2E1"/>
<path d="M58.7422 44.4081H70.4405V50.0151H58.7422V44.4081Z" fill="#E9EDF5"/>
<path d="M48.7698 39.7384H31.2305L32.0478 28.6717C32.2856 26.5114 34.0325 24.8809 36.1094 24.8809H43.8906C45.9675 24.8809 47.7144 26.5112 47.9522 28.6717L48.7698 39.7384Z" fill="#D4362B"/>
<path d="M47.9523 28.6719C47.7145 26.5116 45.9675 24.8811 43.8906 24.8811H39.9443V39.7386H48.7697L47.9523 28.6719Z" fill="#690B04"/>
<path d="M44.4568 21.2835C44.8566 18.817 43.1813 16.4933 40.7148 16.0935C38.2482 15.6937 35.9246 17.369 35.5248 19.8356C35.1249 22.3021 36.8003 24.6257 39.2668 25.0256C41.7333 25.4254 44.057 23.75 44.4568 21.2835Z" fill="#FFC9BD"/>
<path d="M40 16.0349C39.9814 16.0349 39.9629 16.0361 39.9443 16.0363V25.0833C39.9629 25.0834 39.9814 25.0847 40 25.0847C42.499 25.0847 44.5248 23.0588 44.5248 20.5598C44.5248 18.0609 42.499 16.0349 40 16.0349Z" fill="#FFBEAA"/>
<path d="M54.8511 64.824C54.7811 64.824 54.7108 64.8218 54.6398 64.8176C52.7448 64.7028 51.3019 63.0734 51.4165 61.1784L52.3953 45.0301C52.4994 43.313 53.8569 41.9372 55.5726 41.81L60.9117 41.4145L60.2961 40.1275C59.477 38.4148 60.2012 36.3625 61.9137 35.5433C63.6269 34.7242 65.6791 35.4484 66.4981 37.1611L69.2851 42.9878C69.7751 44.0122 69.7275 45.2125 69.158 46.195C68.5884 47.1775 67.5705 47.8153 66.438 47.8992L59.0761 48.4445L58.279 61.5945C58.1684 63.4184 56.6545 64.824 54.8511 64.824Z" fill="#BB3026"/>
<path d="M60.0157 25.8264C62.2582 25.1422 63.5214 22.7696 62.8372 20.5271C62.1529 18.2847 59.7804 17.0215 57.5379 17.7057C55.2954 18.3899 54.0322 20.7625 54.7164 23.0049C55.4007 25.2474 57.7732 26.5106 60.0157 25.8264Z" fill="#FFC9BD"/>
<path d="M57.8141 30.9264C57.5592 28.1016 59.6427 25.605 62.4677 25.3502C65.2925 25.0954 67.7891 27.1789 68.0439 30.0038L69.6053 43.6668L59.0531 41.4947L57.8141 30.9264Z" fill="#D4362B"/>
<path d="M58.7422 37.5589H51.5039C50.1231 37.5589 49.0039 36.4395 49.0039 35.0589C49.0039 33.6781 50.1231 32.5589 51.5039 32.5589H57.7288L62.4709 27.9584C63.4619 26.997 65.0447 27.0211 66.0059 28.012C66.9674 29.003 66.9434 30.5858 65.9524 31.5472L60.483 36.8533C60.0164 37.3058 59.392 37.5589 58.7422 37.5589Z" fill="#FFC9BD"/>
<path d="M30.1553 38.5219H49.8453V63.9652H30.1553V38.5219Z" fill="#555A66"/>
<path d="M39.9443 38.5219H49.8449V63.9652H39.9443V38.5219Z" fill="#333940"/>
<path d="M19.9668 36.5312H60.0329V42.9459H19.9668V36.5312Z" fill="white"/>
<path d="M18.2646 63.9651H13.8162V47.2116H18.2646V63.9651Z" fill="#E9EDF5"/>
<path d="M21.2578 50.0153H9.55953V44.4082H21.2578V50.0153Z" fill="white"/>
<path d="M25.1493 64.8241C23.3457 64.8241 21.832 63.4187 21.7213 61.5944L20.9243 48.4444L13.5624 47.8991C12.4299 47.8151 11.4118 47.1773 10.8424 46.1948C10.2729 45.2123 10.2254 44.012 10.7154 42.9877L13.5024 37.1609C14.3217 35.4484 16.3742 34.7241 18.0868 35.5431C19.7995 36.3623 20.5237 38.4147 19.7046 40.1273L19.089 41.4144L24.4281 41.8098C26.1437 41.9369 27.5013 43.3128 27.6054 45.03L28.5842 61.1783C28.6988 63.0733 27.2559 64.7027 25.3609 64.8175C25.2898 64.8219 25.2192 64.8241 25.1493 64.8241Z" fill="#BB3026"/>
<path d="M25.3323 22.99C26.0165 20.7475 24.7533 18.375 22.5108 17.6907C20.2684 17.0065 17.8958 18.2697 17.2116 20.5122C16.5273 22.7547 17.7905 25.1272 20.033 25.8115C22.2755 26.4957 24.6481 25.2325 25.3323 22.99Z" fill="#FFBEAA"/>
<path d="M22.1858 30.9264C22.4406 28.1016 20.3572 25.605 17.5322 25.3502C14.7073 25.0954 12.2108 27.1789 11.9559 30.0038L10.3945 43.6668L20.9467 41.4947L22.1858 30.9264Z" fill="#D4362B"/>
<path d="M28.4958 37.559H21.2575C20.6077 37.559 19.9833 37.3058 19.5167 36.8533L14.0474 31.5472C13.0563 30.5858 13.0324 29.003 13.9938 28.0121C14.9547 27.0211 16.5375 26.9969 17.5288 27.9585L22.271 32.559H28.4958C29.8766 32.559 30.9958 33.6782 30.9958 35.059C30.9958 36.4396 29.8766 37.559 28.4958 37.559Z" fill="#FFBEAA"/>
<path d="M60.0332 42.9457H19.9671V36.5311H60.0332V42.9457Z" fill="white"/>
<path d="M39.9443 36.5312H60.0329V42.9458H39.9443V36.5312Z" fill="#E9EDF5"/>
<defs>
<linearGradient id="paint0_linear" x1="40" y1="0" x2="40" y2="80" gradientUnits="userSpaceOnUse">
<stop stop-color="#FFE175"/>
<stop offset="1" stop-color="#FFC01B"/>
</linearGradient>
</defs>
</svg>
