<svg width="66" height="66" viewBox="0 0 66 66" fill="none" xmlns="http://www.w3.org/2000/svg">
<g clip-path="url(#clip0)">
<path d="M43.4687 0.419434H23.5157C5.30762 0.419434 0.991211 4.73584 0.991211 22.944V42.8969C0.991211 61.1051 5.30762 65.4215 23.5157 65.4215H43.4687C61.6768 65.4215 65.9932 61.1051 65.9932 42.8969V22.944C65.9932 4.73584 61.6342 0.419434 43.4687 0.419434ZM53.4665 46.7888H48.7479C46.9604 46.7888 46.41 45.371 43.1945 42.1129C40.4015 39.4052 39.1645 39.0457 38.4759 39.0457C37.5029 39.0457 37.2267 39.3199 37.2267 40.6544V44.918C37.2267 46.0616 36.8671 46.7482 33.8406 46.7482C28.8356 46.7482 23.2821 43.7216 19.3882 38.0829C13.5159 29.8197 11.9092 23.6305 11.9092 22.3508C11.9092 21.6622 12.1834 21.0183 13.5057 21.0183H18.2345C19.4309 21.0183 19.8859 21.5688 20.3511 22.8485C22.689 29.5983 26.5829 35.5113 28.1896 35.5113C28.7828 35.5113 29.057 35.2371 29.057 33.7238V26.7526C28.8762 23.5371 27.1842 23.2608 27.1842 22.1193C27.1842 21.5688 27.6392 21.0183 28.3684 21.0183H35.8048C36.8103 21.0183 37.18 21.5688 37.18 22.753V32.1577C37.18 33.1733 37.635 33.5329 37.9092 33.5329C38.5023 33.5329 39.0101 33.1733 40.109 32.0724C43.5053 28.2638 45.9387 22.3915 45.9387 22.3915C46.2556 21.7029 46.8061 21.059 48.0025 21.059H52.7312C54.149 21.059 54.4659 21.7882 54.149 22.8038C53.5559 25.5541 47.7689 33.7218 47.7689 33.7218C47.2712 34.5465 47.0803 34.906 47.7689 35.8262C48.2767 36.5147 49.9281 37.9427 51.027 39.2224C53.0481 41.5177 54.602 43.4433 55.0164 44.7758C55.4815 46.0982 54.795 46.7868 53.4604 46.7868L53.4665 46.7888Z" fill="url(#paint0_linear)"/>
</g>
<defs>
<linearGradient id="paint0_linear" x1="33.4922" y1="0.419434" x2="33.4922" y2="65.4215" gradientUnits="userSpaceOnUse">
<stop stop-color="#FFE175"/>
<stop offset="1" stop-color="#FFC01B"/>
</linearGradient>
<clipPath id="clip0">
<rect width="65" height="65" fill="white" transform="translate(0.994141 0.419434)"/>
</clipPath>
</defs>
</svg>
