<svg width="30" height="30" viewBox="0 0 30 30" fill="none" xmlns="http://www.w3.org/2000/svg">
<g clip-path="url(#clip0)">
<path d="M15.0048 0H14.9956C6.72677 0 0 6.72726 0 14.9995C0 18.2797 1.05871 21.3218 2.85629 23.7915L0.988065 29.3652L6.7529 27.5221C9.12387 29.0918 11.9545 30 15.0048 30C23.2742 30 30 23.2713 30 15C30 6.72774 23.2742 0 15.0048 0ZM23.7319 21.1815C23.3715 22.2039 21.9339 23.0506 20.7881 23.2984C20.0032 23.4653 18.9808 23.5979 15.5342 22.169C11.1256 20.3439 8.28677 15.8642 8.06661 15.5724C7.85468 15.2816 6.28548 13.2005 6.28548 11.0487C6.28548 8.89694 7.37855 7.84742 7.81984 7.39742C8.18129 7.02726 8.78081 6.86081 9.35371 6.86081C9.53952 6.86081 9.70597 6.86952 9.85645 6.87726C10.2973 6.89565 10.5174 6.92274 10.8082 7.61855C11.1697 8.49097 12.0513 10.6432 12.1573 10.8634C12.2627 11.084 12.3692 11.3835 12.2187 11.6744C12.0774 11.9744 11.9545 12.1079 11.7344 12.3629C11.5132 12.6179 11.3013 12.8129 11.0816 13.0858C10.8789 13.3239 10.649 13.5798 10.9055 14.0206C11.1615 14.4537 12.0426 15.8903 13.3384 17.0448C15.0131 18.5352 16.3708 19.0118 16.8561 19.2145C17.2171 19.365 17.6497 19.3287 17.9144 19.0471C18.2492 18.6852 18.6639 18.0861 19.0868 17.4953C19.3863 17.071 19.7656 17.0187 20.1619 17.1682C20.5679 17.309 22.711 18.3677 23.1518 18.5884C23.5916 18.809 23.8829 18.9145 23.9884 19.0998C24.0939 19.2861 24.0939 20.1585 23.7319 21.1815Z" fill="#7FD371"/>
<path d="M0 14.9995C0 18.2797 1.05871 21.3218 2.85629 23.7915L0.988065 29.3652L6.7529 27.5221C9.12387 29.0918 11.9545 30 15.0048 30C23.2742 30 30 23.2713 30 15C30 6.72774 23.2742 0 15.0048 0H14.9956L0 14.9995ZM23.7319 21.1815C23.3715 22.2039 21.9339 23.0506 20.7881 23.2984C20.0032 23.4653 18.9808 23.5979 15.5342 22.169C11.1256 20.3439 8.28677 15.8642 8.06661 15.5724C7.85468 15.2816 6.28548 13.2005 6.28548 11.0487C6.28548 8.89694 7.37855 7.84742 7.81984 7.39742C8.18129 7.02726 8.78081 6.86081 9.35371 6.86081C9.53952 6.86081 9.70597 6.86952 9.85645 6.87726C10.2973 6.89565 10.5174 6.92274 10.8082 7.61855C11.1697 8.49097 12.0513 10.6432 12.1573 10.8634C12.2627 11.084 12.3692 11.3835 12.2187 11.6744C12.0774 11.9744 11.9545 12.1079 11.7344 12.3629C11.5132 12.6179 11.3013 12.8129 11.0816 13.0858C10.8789 13.3239 10.649 13.5798 10.9055 14.0206C11.1615 14.4537 12.0426 15.8903 13.3384 17.0448C15.0131 18.5352 16.3708 19.0118 16.8561 19.2145C17.2171 19.365 17.6497 19.3287 17.9144 19.0471C18.2492 18.6852 18.6639 18.0861 19.0868 17.4953C19.3863 17.071 19.7656 17.0187 20.1619 17.1682C20.5679 17.309 22.711 18.3677 23.1518 18.5884C23.5916 18.809 23.8829 18.9145 23.9884 19.0998C24.0939 19.2861 24.0939 20.1585 23.7319 21.1815Z" fill="#6DBC61"/>
<path d="M19.8007 0.791107C23.6252 4.06062 26.1215 9.05803 26.1215 13.289C26.1215 15.6193 25.3623 17.7996 24.0438 19.6727C24.0263 20.0593 23.9407 20.593 23.7317 21.1814C23.3712 22.2038 21.9336 23.0506 20.7878 23.2983C20.5759 23.3433 20.3441 23.385 20.0542 23.3942C17.5439 24.9595 14.4326 25.8861 11.0625 25.8861C8.02764 25.8861 5.20425 25.1327 2.83909 23.8398L0.988281 29.3651L6.75312 27.5221C9.12409 29.0917 11.9547 30 15.0051 30C23.2744 30 30.0002 23.2712 30.0002 15C30.0002 8.40578 25.7238 2.79675 19.8007 0.791107Z" fill="#549B45"/>
<path d="M20.1628 17.1687C20.2635 17.2035 20.4686 17.2945 20.728 17.414L10.7041 7.39062C10.7389 7.45692 10.7743 7.53288 10.8096 7.61901C11.171 8.49143 12.0527 10.6437 12.1586 10.8638C12.2641 11.0845 12.3706 11.384 12.2201 11.6748C12.0788 11.9748 11.9559 12.1084 11.7357 12.3634C11.5146 12.6184 11.3027 12.8134 11.083 13.0863C10.8802 13.3243 10.6504 13.5803 10.9068 14.0211C11.1628 14.4542 12.0439 15.8908 13.3397 17.0453C15.0144 18.5356 16.3722 19.0122 16.8575 19.215C17.2185 19.3654 17.651 19.3292 17.9157 19.0475C18.2506 18.6856 18.6652 18.0866 19.0881 17.4958C19.3872 17.0714 19.767 17.0192 20.1628 17.1687Z" fill="#549B45"/>
<path d="M6.28621 11.0623L6.1875 11.1614L6.2954 11.2689C6.29153 11.2002 6.28621 11.1314 6.28621 11.0623Z" fill="#5CAA4F"/>
</g>
<defs>
<clipPath id="clip0">
<rect width="30" height="30" fill="white"/>
</clipPath>
</defs>
</svg>
